<?xml version="1.0" encoding="iso-8859-1"?>
<!-- Generator: Adobe Illustrator 16.0.0, SVG Export Plug-In . SVG Version: 6.00 Build 0)  -->
<!DOCTYPE svg PUBLIC "-//W3C//DTD SVG 1.1//EN" "http://www.w3.org/Graphics/SVG/1.1/DTD/svg11.dtd">
<svg version="1.1" id="Capa_1" xmlns="http://www.w3.org/2000/svg" xmlns:xlink="http://www.w3.org/1999/xlink" x="0px" y="0px"
	 width="658.839px" height="658.84px" viewBox="0 0 658.839 658.84" style="enable-background:new 0 0 658.839 658.84;"
	 xml:space="preserve">
<g>
	<g id="BBQ">
		<g>
			<path d="M635.007,44.884c1.647-11.283-1.709-22.73-9.162-31.315C618.392,4.921,607.542,0,596.157,0H62.682
				C51.296,0,40.487,4.941,33.013,13.568c-7.453,8.606-10.83,20.053-9.183,31.315c15.297,105.208,83.755,192.978,177.104,235.782
				l-55.363,193.761c-46.88,4.55-83.796,43.709-83.796,91.764c0,51.08,41.568,92.649,92.649,92.649
				c51.081,0,92.649-41.548,92.649-92.649c0-32.16-16.491-60.49-41.445-77.104l16.203-56.723h215.173l58.308,204.076
				c3.706,12.93,15.606,22.4,29.71,22.4c17.047,0,30.883-13.836,30.883-30.884c0-2.964-0.433-5.785-1.194-8.482l-96.808-338.808
				C551.273,237.862,619.71,150.092,635.007,44.884z M154.425,597.073c-17.027,0-30.883-13.856-30.883-30.883
				c0-17.027,13.856-30.883,30.883-30.883c17.027,0,30.883,13.855,30.883,30.883C185.288,583.217,171.452,597.073,154.425,597.073z
				 M239.477,370.598l20.012-70.043c22.503,5.229,45.831,8.276,69.919,8.276s47.437-3.047,69.92-8.256l20.032,70.022H239.477z
				 M329.409,247.065c-112.97,0-211.549-78.011-239.282-185.298h478.564C541,169.054,442.42,247.065,329.409,247.065z"/>
		</g>
	</g>
</g>
<g>
</g>
<g>
</g>
<g>
</g>
<g>
</g>
<g>
</g>
<g>
</g>
<g>
</g>
<g>
</g>
<g>
</g>
<g>
</g>
<g>
</g>
<g>
</g>
<g>
</g>
<g>
</g>
<g>
</g>
</svg>
