<?xml version="1.0" encoding="iso-8859-1"?>
<!-- Generator: Adobe Illustrator 16.0.0, SVG Export Plug-In . SVG Version: 6.00 Build 0)  -->
<!DOCTYPE svg PUBLIC "-//W3C//DTD SVG 1.1//EN" "http://www.w3.org/Graphics/SVG/1.1/DTD/svg11.dtd">
<svg version="1.1" id="Capa_1" xmlns="http://www.w3.org/2000/svg" xmlns:xlink="http://www.w3.org/1999/xlink" x="0px" y="0px"
	 width="792.02px" height="792.02px" viewBox="0 0 792.02 792.02" style="enable-background:new 0 0 792.02 792.02;"
	 xml:space="preserve">
<g>
	<g id="Ribbon">
		<g>
			<path d="M544.51,148.5h-297v74.25h297V148.5z M544.51,297h-297v74.25h297V297z M643.51,0h-495c-27.299,0-49.5,22.201-49.5,49.5
				v705.375c0,13.241,7.054,25.468,18.488,32.125c11.459,6.634,25.567,6.708,37.051,0.124L396.01,649.143l241.461,137.981
				c5.692,3.268,12.054,4.876,18.414,4.876c6.435,0,12.87-1.658,18.637-5c11.435-6.657,18.488-18.884,18.488-32.125V49.5
				C693.01,22.201,670.809,0,643.51,0z M618.76,690.896L414.424,574.126c-5.692-3.268-12.054-4.876-18.414-4.876
				c-6.361,0-12.722,1.608-18.414,4.876L173.26,690.896V74.25h445.5V690.896z"/>
		</g>
	</g>
</g>
<g>
</g>
<g>
</g>
<g>
</g>
<g>
</g>
<g>
</g>
<g>
</g>
<g>
</g>
<g>
</g>
<g>
</g>
<g>
</g>
<g>
</g>
<g>
</g>
<g>
</g>
<g>
</g>
<g>
</g>
</svg>
