<?xml version="1.0" encoding="iso-8859-1"?>
<!-- Generator: Adobe Illustrator 16.0.0, SVG Export Plug-In . SVG Version: 6.00 Build 0)  -->
<!DOCTYPE svg PUBLIC "-//W3C//DTD SVG 1.1//EN" "http://www.w3.org/Graphics/SVG/1.1/DTD/svg11.dtd">
<svg version="1.1" id="Capa_1" xmlns="http://www.w3.org/2000/svg" xmlns:xlink="http://www.w3.org/1999/xlink" x="0px" y="0px"
	 width="612px" height="612px" viewBox="0 0 612 612" style="enable-background:new 0 0 612 612;" xml:space="preserve">
<g>
	<g id="Update">
		<g>
			<path d="M583.312,19.125c-15.836,0-28.688,12.852-28.688,28.688v79.847C497.671,48.004,406.062,0,306,0
				C137.279,0,0,137.279,0,306s137.279,306,306,306c124.37,0,235.429-74.301,282.936-189.261c3.021-7.325,2.792-15.166-0.02-21.918
				c-2.812-6.789-8.224-12.507-15.567-15.548c-7.306-3.022-15.147-2.793-21.917,0.019c-6.771,2.812-12.489,8.243-15.53,15.549
				C497.308,494.267,407.057,554.625,306,554.625C168.912,554.625,57.375,443.088,57.375,306S168.912,57.375,306,57.375
				c85.795,0,163.901,43.471,209.399,114.75h-85.087c-15.836,0-28.688,12.852-28.688,28.688s12.852,28.688,28.688,28.688h153
				c15.836,0,28.688-12.852,28.688-28.688v-153C612,31.977,599.148,19.125,583.312,19.125z"/>
		</g>
	</g>
</g>
<g>
</g>
<g>
</g>
<g>
</g>
<g>
</g>
<g>
</g>
<g>
</g>
<g>
</g>
<g>
</g>
<g>
</g>
<g>
</g>
<g>
</g>
<g>
</g>
<g>
</g>
<g>
</g>
<g>
</g>
</svg>
