<?xml version="1.0" encoding="iso-8859-1"?>
<!-- Generator: Adobe Illustrator 16.0.0, SVG Export Plug-In . SVG Version: 6.00 Build 0)  -->
<!DOCTYPE svg PUBLIC "-//W3C//DTD SVG 1.1//EN" "http://www.w3.org/Graphics/SVG/1.1/DTD/svg11.dtd">
<svg version="1.1" id="Capa_1" xmlns="http://www.w3.org/2000/svg" xmlns:xlink="http://www.w3.org/1999/xlink" x="0px" y="0px"
	 width="753.23px" height="753.23px" viewBox="0 0 753.23 753.23" style="enable-background:new 0 0 753.23 753.23;"
	 xml:space="preserve">
<g>
	<g id="Recycle_x5F_Bin">
		<g>
			<path d="M647.308,117.692H517.846V47.077C517.846,21.09,496.756,0,470.77,0H282.461c-25.986,0-47.077,21.09-47.077,47.077v70.616
				H105.923c-19.49,0-35.308,15.794-35.308,35.308c0,19.513,15.818,35.308,35.308,35.308h11.77v517.846
				c0,26.011,21.09,47.077,47.077,47.077h423.692c25.987,0,47.077-21.09,47.077-47.077V188.308h11.77
				c19.489,0,35.308-15.794,35.308-35.308C682.615,133.486,666.797,117.692,647.308,117.692z M306,70.615h141.23v47.077H306V70.615z
				 M564.923,682.615H188.308V188.308h376.615V682.615z"/>
		</g>
	</g>
</g>
<g>
</g>
<g>
</g>
<g>
</g>
<g>
</g>
<g>
</g>
<g>
</g>
<g>
</g>
<g>
</g>
<g>
</g>
<g>
</g>
<g>
</g>
<g>
</g>
<g>
</g>
<g>
</g>
<g>
</g>
</svg>
