<?xml version="1.0" encoding="iso-8859-1"?>
<!-- Generator: Adobe Illustrator 16.0.0, SVG Export Plug-In . SVG Version: 6.00 Build 0)  -->
<!DOCTYPE svg PUBLIC "-//W3C//DTD SVG 1.1//EN" "http://www.w3.org/Graphics/SVG/1.1/DTD/svg11.dtd">
<svg version="1.1" id="Capa_1" xmlns="http://www.w3.org/2000/svg" xmlns:xlink="http://www.w3.org/1999/xlink" x="0px" y="0px"
	 width="612px" height="612px" viewBox="0 0 612 612" style="enable-background:new 0 0 612 612;" xml:space="preserve">
<g>
	<g id="Radiation">
		<g>
			<path d="M584.182,296.912H404.05c-4.674-16.45-13.353-31.23-24.962-43.174L469.07,97.9c7.678-13.297,3.134-30.303-10.145-37.981
				C412.34,32.973,359.467,18.73,306,18.73c-53.466,0-106.34,14.243-152.926,41.189c-13.279,7.696-17.822,24.703-10.145,37.981
				l89.982,155.837c-11.609,11.943-20.289,26.706-24.962,43.174H27.818C12.462,296.912,0,309.356,0,324.73
				c0,108.695,58.659,210.157,153.074,264.811c6.398,3.69,13.983,4.692,21.142,2.782c7.122-1.91,13.205-6.584,16.895-12.964
				l89.982-155.837c7.975,2.003,16.283,3.208,24.907,3.208c8.624,0,16.932-1.205,24.925-3.208l89.982,155.837
				c3.69,6.398,9.773,11.054,16.896,12.964c7.158,1.91,14.725,0.908,21.142-2.782C553.341,534.887,612,433.425,612,324.73
				C612,309.356,599.537,296.912,584.182,296.912z M157.636,526.078c-56.063-41.394-92.616-104.559-100.423-173.529H207.95
				c4.673,16.449,13.353,31.23,24.962,43.155L157.636,526.078z M205.78,95.49c63.185-27.763,137.255-27.763,200.458,0
				l-75.313,130.449c-8.012-2.021-16.301-3.208-24.925-3.208c-8.624,0-16.914,1.187-24.925,3.208L205.78,95.49z M306,371.093
				c-25.574,0-46.364-20.789-46.364-46.363c0-25.556,20.79-46.364,46.364-46.364s46.363,20.808,46.363,46.364
				C352.363,350.304,331.574,371.093,306,371.093z M454.363,526.078l-75.275-130.374c11.609-11.925,20.288-26.706,24.962-43.155
				h150.737C546.979,421.519,510.427,484.684,454.363,526.078z"/>
		</g>
	</g>
</g>
<g>
</g>
<g>
</g>
<g>
</g>
<g>
</g>
<g>
</g>
<g>
</g>
<g>
</g>
<g>
</g>
<g>
</g>
<g>
</g>
<g>
</g>
<g>
</g>
<g>
</g>
<g>
</g>
<g>
</g>
</svg>
