<?xml version="1.0" encoding="iso-8859-1"?>
<!-- Generator: Adobe Illustrator 16.0.0, SVG Export Plug-In . SVG Version: 6.00 Build 0)  -->
<!DOCTYPE svg PUBLIC "-//W3C//DTD SVG 1.1//EN" "http://www.w3.org/Graphics/SVG/1.1/DTD/svg11.dtd">
<svg version="1.1" id="Capa_1" xmlns="http://www.w3.org/2000/svg" xmlns:xlink="http://www.w3.org/1999/xlink" x="0px" y="0px"
	 width="612px" height="612px" viewBox="0 0 612 612" style="enable-background:new 0 0 612 612;" xml:space="preserve">
<g>
	<g id="Calendar">
		<g>
			<path d="M573.75,76.5h-76.5V28.688C497.25,12.852,484.398,0,468.562,0s-28.688,12.852-28.688,28.688V76.5h-267.75V28.688
				C172.125,12.852,159.273,0,143.438,0S114.75,12.852,114.75,28.688V76.5h-76.5C17.136,76.5,0,93.617,0,114.75v459
				C0,594.883,17.136,612,38.25,612h535.5c21.114,0,38.25-17.117,38.25-38.25v-459C612,93.617,594.864,76.5,573.75,76.5z
				 M554.625,554.625H57.375v-306h497.25V554.625z M554.625,191.25H57.375v-57.375h497.25V191.25z"/>
		</g>
	</g>
</g>
<g>
</g>
<g>
</g>
<g>
</g>
<g>
</g>
<g>
</g>
<g>
</g>
<g>
</g>
<g>
</g>
<g>
</g>
<g>
</g>
<g>
</g>
<g>
</g>
<g>
</g>
<g>
</g>
<g>
</g>
</svg>
