<?xml version="1.0" encoding="iso-8859-1"?>
<!-- Generator: Adobe Illustrator 16.0.0, SVG Export Plug-In . SVG Version: 6.00 Build 0)  -->
<!DOCTYPE svg PUBLIC "-//W3C//DTD SVG 1.1//EN" "http://www.w3.org/Graphics/SVG/1.1/DTD/svg11.dtd">
<svg version="1.1" id="Capa_1" xmlns="http://www.w3.org/2000/svg" xmlns:xlink="http://www.w3.org/1999/xlink" x="0px" y="0px"
	 width="612px" height="612px" viewBox="0 0 612 612" style="enable-background:new 0 0 612 612;" xml:space="preserve">
<g>
	<g id="First_x5F_aid_x5F_kit">
		<g>
			<path d="M278.182,454.363h55.637v-74.182H408v-55.636h-74.182v-74.182h-55.637v74.182H204v55.636h74.182V454.363z
				 M574.909,120.545H445.091V64.909c0-20.474-16.616-37.091-37.091-37.091H204c-20.474,0-37.091,16.617-37.091,37.091v55.636
				H37.091C16.617,120.545,0,137.162,0,157.636v389.455c0,20.475,16.617,37.091,37.091,37.091h537.818
				c20.474,0,37.091-16.616,37.091-37.091V157.636C612,137.162,595.383,120.545,574.909,120.545z M222.545,83.455h166.909v37.091
				H222.545V83.455z M556.363,528.546H55.636V176.182h500.727V528.546z"/>
		</g>
	</g>
</g>
<g>
</g>
<g>
</g>
<g>
</g>
<g>
</g>
<g>
</g>
<g>
</g>
<g>
</g>
<g>
</g>
<g>
</g>
<g>
</g>
<g>
</g>
<g>
</g>
<g>
</g>
<g>
</g>
<g>
</g>
</svg>
