<?xml version="1.0" encoding="iso-8859-1"?>
<!-- Generator: Adobe Illustrator 16.0.0, SVG Export Plug-In . SVG Version: 6.00 Build 0)  -->
<!DOCTYPE svg PUBLIC "-//W3C//DTD SVG 1.1//EN" "http://www.w3.org/Graphics/SVG/1.1/DTD/svg11.dtd">
<svg version="1.1" id="Capa_1" xmlns="http://www.w3.org/2000/svg" xmlns:xlink="http://www.w3.org/1999/xlink" x="0px" y="0px"
	 width="612px" height="612px" viewBox="0 0 612 612" style="enable-background:new 0 0 612 612;" xml:space="preserve">
<g>
	<g id="Current">
		<g>
			<path d="M306,0C137.009,0,0,137.009,0,306s137.009,306,306,306s306-137.009,306-306S474.991,0,306,0z M335.613,550.819v-67.142
				c0-16.347-13.247-29.613-29.613-29.613s-29.613,13.267-29.613,29.613v67.142C163.977,537.297,74.704,448.004,61.18,335.613
				h67.143c16.366,0,29.613-13.267,29.613-29.613c0-16.346-13.247-29.613-29.613-29.613H61.18
				C74.704,163.996,163.977,74.704,276.387,61.18v67.143c0,16.346,13.247,29.613,29.613,29.613s29.613-13.267,29.613-29.613V61.18
				c112.41,13.523,201.684,102.816,215.206,215.207h-67.142c-16.366,0-29.613,13.267-29.613,29.613
				c0,16.347,13.247,29.613,29.613,29.613h67.142C537.297,448.004,448.023,537.297,335.613,550.819z"/>
		</g>
	</g>
</g>
<g>
</g>
<g>
</g>
<g>
</g>
<g>
</g>
<g>
</g>
<g>
</g>
<g>
</g>
<g>
</g>
<g>
</g>
<g>
</g>
<g>
</g>
<g>
</g>
<g>
</g>
<g>
</g>
<g>
</g>
</svg>
