<?xml version="1.0" encoding="iso-8859-1"?>
<!-- Generator: Adobe Illustrator 16.0.0, SVG Export Plug-In . SVG Version: 6.00 Build 0)  -->
<!DOCTYPE svg PUBLIC "-//W3C//DTD SVG 1.1//EN" "http://www.w3.org/Graphics/SVG/1.1/DTD/svg11.dtd">
<svg version="1.1" id="Capa_1" xmlns="http://www.w3.org/2000/svg" xmlns:xlink="http://www.w3.org/1999/xlink" x="0px" y="0px"
	 width="699.428px" height="699.428px" viewBox="0 0 699.428 699.428" style="enable-background:new 0 0 699.428 699.428;"
	 xml:space="preserve">
<g>
	<g id="Joystick">
		<g>
			<path d="M612,524.572h-65.572v-43.715c0-36.195-29.354-65.572-65.571-65.572h-87.429V254.636
				c50.862-18.054,87.429-66.533,87.429-123.493C480.856,58.818,422.039,0,349.714,0S218.571,58.818,218.571,131.143
				c0,56.959,36.567,105.438,87.429,123.493v160.649h-87.429c-36.217,0-65.571,29.377-65.571,65.572v43.715H87.428
				c-24.13,0-43.714,19.584-43.714,43.713v87.43c0,24.152,19.584,43.713,43.714,43.713H612c24.13,0,43.714-19.561,43.714-43.713
				v-87.43C655.714,544.133,636.13,524.572,612,524.572z M284.143,131.143c0-36.152,29.419-65.572,65.571-65.572
				c36.151,0,65.571,29.42,65.571,65.572c0,36.151-29.42,65.571-65.571,65.571C313.562,196.714,284.143,167.294,284.143,131.143z
				 M218.571,480.857h262.286v43.715H218.571V480.857z M590.143,633.857H109.285v-43.715h480.857V633.857z"/>
		</g>
	</g>
</g>
<g>
</g>
<g>
</g>
<g>
</g>
<g>
</g>
<g>
</g>
<g>
</g>
<g>
</g>
<g>
</g>
<g>
</g>
<g>
</g>
<g>
</g>
<g>
</g>
<g>
</g>
<g>
</g>
<g>
</g>
</svg>
