<?xml version="1.0" encoding="iso-8859-1"?>
<!-- Generator: Adobe Illustrator 16.0.0, SVG Export Plug-In . SVG Version: 6.00 Build 0)  -->
<!DOCTYPE svg PUBLIC "-//W3C//DTD SVG 1.1//EN" "http://www.w3.org/Graphics/SVG/1.1/DTD/svg11.dtd">
<svg version="1.1" id="Capa_1" xmlns="http://www.w3.org/2000/svg" xmlns:xlink="http://www.w3.org/1999/xlink" x="0px" y="0px"
	 width="612px" height="612px" viewBox="0 0 612 612" style="enable-background:new 0 0 612 612;" xml:space="preserve">
<g>
	<g id="Headphones">
		<g>
			<path d="M563.472,368.766C571.536,343.242,576,316.17,576,288c0-148.878-121.122-270-270-270C157.104,18,36,139.122,36,288
				c0,28.17,4.464,55.242,12.528,80.766C19.044,391.842,0,427.662,0,468c0,69.588,56.412,126,126,126h18c19.872,0,36-16.128,36-36
				V378c0-19.872-16.128-36-36-36h-18c-9.648,0-19.008,1.17-28.044,3.24C92.916,326.97,90,307.854,90,288
				c0-119.106,96.894-216,216-216c119.106,0,216,96.894,216,216c0,19.854-2.916,38.97-7.956,57.24
				C505.008,343.17,495.648,342,486,342h-18c-19.872,0-36,16.128-36,36v180c0,19.872,16.128,36,36,36h18
				c69.588,0,126-56.412,126-126C612,427.662,592.956,391.842,563.472,368.766z M126,396v144c-39.708,0-72-32.292-72-72
				S86.292,396,126,396z M486,540V396c39.708,0,72,32.292,72,72S525.708,540,486,540z"/>
		</g>
	</g>
</g>
<g>
</g>
<g>
</g>
<g>
</g>
<g>
</g>
<g>
</g>
<g>
</g>
<g>
</g>
<g>
</g>
<g>
</g>
<g>
</g>
<g>
</g>
<g>
</g>
<g>
</g>
<g>
</g>
<g>
</g>
</svg>
