<?xml version="1.0" encoding="iso-8859-1"?>
<!-- Generator: Adobe Illustrator 16.0.0, SVG Export Plug-In . SVG Version: 6.00 Build 0)  -->
<!DOCTYPE svg PUBLIC "-//W3C//DTD SVG 1.1//EN" "http://www.w3.org/Graphics/SVG/1.1/DTD/svg11.dtd">
<svg version="1.1" id="Capa_1" xmlns="http://www.w3.org/2000/svg" xmlns:xlink="http://www.w3.org/1999/xlink" x="0px" y="0px"
	 width="612px" height="612px" viewBox="0 0 612 612" style="enable-background:new 0 0 612 612;" xml:space="preserve">
<g>
	<g id="Magnet">
		<g>
			<path d="M596.662,255.712l-76.175-57.107c-6.809-5.049-15.032-7.325-23.237-7.114c-12.929,0.344-25.78,6.904-32.685,18.532
				l-95.146,163.079c-17.137,29.356-48.788,47.602-82.621,47.602c-52.708,0-95.586-42.897-95.586-95.625
				c0-33.889,18.264-65.599,47.698-82.734l163.098-94.956c11.704-6.847,18.972-19.507,18.972-33.029
				c0-8.243-2.734-16.39-7.611-22.912L356.49,15.483c-7.287-9.907-19.145-15.587-31.365-15.434
				c-4.819,0.058-9.716,1.014-14.382,2.964L174.668,61.058C68.544,106.27,0,209.927,0,325.079
				c0,158.202,128.654,286.875,286.798,286.875c114.903,0,218.446-68.41,263.81-174.305l58.408-136.477
				c1.97-4.705,2.983-9.696,2.983-14.841C612,274.321,606.243,262.865,596.662,255.712z M319.406,61.689l35.152,46.952
				l-45.192,26.316l-48.329-48.348L319.406,61.689z M497.862,415.082c-36.3,84.762-119.149,139.517-211.064,139.517
				c-126.512,0-229.423-102.95-229.423-229.52c0-92.125,54.87-175.051,139.785-211.254l6.98-2.984l53.933,53.952l-48.042,27.96
				c-46.99,27.368-76.194,78.087-76.194,132.307c0,84.379,68.62,153,152.961,153c54.181,0,104.825-29.146,132.192-76.08
				l28.095-48.156l53.895,53.913L497.862,415.082z M525.307,350.955l-46.13-46.167l-8.319,8.338l32.455-55.653l46.952,35.171
				L525.307,350.955z"/>
		</g>
	</g>
</g>
<g>
</g>
<g>
</g>
<g>
</g>
<g>
</g>
<g>
</g>
<g>
</g>
<g>
</g>
<g>
</g>
<g>
</g>
<g>
</g>
<g>
</g>
<g>
</g>
<g>
</g>
<g>
</g>
<g>
</g>
</svg>
