<?xml version="1.0" encoding="iso-8859-1"?>
<!-- Generator: Adobe Illustrator 16.0.0, SVG Export Plug-In . SVG Version: 6.00 Build 0)  -->
<!DOCTYPE svg PUBLIC "-//W3C//DTD SVG 1.1//EN" "http://www.w3.org/Graphics/SVG/1.1/DTD/svg11.dtd">
<svg version="1.1" id="Capa_1" xmlns="http://www.w3.org/2000/svg" xmlns:xlink="http://www.w3.org/1999/xlink" x="0px" y="0px"
	 width="612px" height="612px" viewBox="0 0 612 612" style="enable-background:new 0 0 612 612;" xml:space="preserve">
<g>
	<g id="Bullhorn">
		<g>
			<path d="M572.393,251.648c-2.85-65.101-10.634-130.05-23.716-194.214c-1.894-9.219-9.026-16.486-18.207-18.552
				c-1.74-0.382-3.499-0.573-5.24-0.573c-7.439,0-14.573,3.48-19.144,9.601c-59.689,79.98-161.836,124.14-257.461,124.14h-114.75
				C59.938,172.05,0,231.988,0,305.925c0,73.938,59.938,133.876,133.875,133.876c0,49.705,20.215,96.409,55.94,130.222
				c2.716,2.562,6.369,3.901,10.098,3.634c3.729-0.248,7.191-2.046,9.543-4.953l31.346-38.881
				c4.284-5.298,3.921-12.948-0.879-17.806c-18.896-19.145-29.548-44.887-29.548-72.216h38.25
				c95.625,0,197.771,44.159,257.461,124.14c4.57,6.12,11.704,9.602,19.144,9.602c1.741,0,3.5-0.191,5.222-0.574
				c9.218-2.046,16.333-9.313,18.207-18.551c13.101-64.165,20.885-129.113,23.715-194.215c22.95-7.497,39.627-28.821,39.627-54.277
				C612,280.489,595.323,259.165,572.393,251.648z M210.375,382.426h-76.5c-42.19,0-76.5-34.311-76.5-76.501
				c0-42.189,34.31-76.5,76.5-76.5h76.5V382.426z M503.925,477.648c-63.495-55.769-148.334-89.906-236.175-94.324V228.546
				c87.841-4.418,172.68-38.556,236.175-94.344C520.717,248.417,520.717,363.453,503.925,477.648z"/>
		</g>
	</g>
</g>
<g>
</g>
<g>
</g>
<g>
</g>
<g>
</g>
<g>
</g>
<g>
</g>
<g>
</g>
<g>
</g>
<g>
</g>
<g>
</g>
<g>
</g>
<g>
</g>
<g>
</g>
<g>
</g>
<g>
</g>
</svg>
