<?xml version="1.0" encoding="iso-8859-1"?>
<!-- Generator: Adobe Illustrator 16.0.0, SVG Export Plug-In . SVG Version: 6.00 Build 0)  -->
<!DOCTYPE svg PUBLIC "-//W3C//DTD SVG 1.1//EN" "http://www.w3.org/Graphics/SVG/1.1/DTD/svg11.dtd">
<svg version="1.1" id="Capa_1" xmlns="http://www.w3.org/2000/svg" xmlns:xlink="http://www.w3.org/1999/xlink" x="0px" y="0px"
	 width="612px" height="612px" viewBox="0 0 612 612" style="enable-background:new 0 0 612 612;" xml:space="preserve">
<g>
	<g id="Round_x5F_Stats_x5F_Alt">
		<g>
			<path d="M306,0C137.266,0,0,137.266,0,306s137.266,306,306,306s306-137.266,306-306S474.734,0,306,0z M306,59.226
				c19.248,0,37.904,2.429,55.89,6.634l-76.619,210.528H61.18C75.868,154.244,179.967,59.226,306,59.226z M306,552.774
				c-126.033,0-230.132-95.019-244.82-217.161h232.56l164.332,164.331C416.12,532.914,363.39,552.774,306,552.774z M499.944,458.072
				L340.272,298.399l77.25-212.246C497.654,126.98,552.774,210.094,552.774,306C552.774,363.37,532.914,416.12,499.944,458.072z"/>
		</g>
	</g>
</g>
<g>
</g>
<g>
</g>
<g>
</g>
<g>
</g>
<g>
</g>
<g>
</g>
<g>
</g>
<g>
</g>
<g>
</g>
<g>
</g>
<g>
</g>
<g>
</g>
<g>
</g>
<g>
</g>
<g>
</g>
</svg>
