<?xml version="1.0" encoding="iso-8859-1"?>
<!-- Generator: Adobe Illustrator 16.0.0, SVG Export Plug-In . SVG Version: 6.00 Build 0)  -->
<!DOCTYPE svg PUBLIC "-//W3C//DTD SVG 1.1//EN" "http://www.w3.org/Graphics/SVG/1.1/DTD/svg11.dtd">
<svg version="1.1" id="Capa_1" xmlns="http://www.w3.org/2000/svg" xmlns:xlink="http://www.w3.org/1999/xlink" x="0px" y="0px"
	 width="612px" height="612px" viewBox="0 0 612 612" style="enable-background:new 0 0 612 612;" xml:space="preserve">
<g>
	<g id="Photo">
		<g>
			<path d="M573.75,114.75h-95.625l-76.5-76.5h-191.25l-76.5,76.5H38.25C17.136,114.75,0,131.867,0,153v382.5
				c0,21.133,17.136,38.25,38.25,38.25h535.5c21.133,0,38.25-17.136,38.25-38.25V153C612,131.867,594.883,114.75,573.75,114.75z
				 M554.625,516.375H57.375v-344.25h100.272l76.5-76.5h143.725l76.5,76.5h100.253V516.375z M306,191.25
				c-73.938,0-133.875,59.938-133.875,133.875C172.125,399.043,232.062,459,306,459s133.875-59.957,133.875-133.875
				C439.875,251.188,379.938,191.25,306,191.25z M306,401.625c-42.19,0-76.5-34.311-76.5-76.5c0-42.19,34.31-76.5,76.5-76.5
				c42.189,0,76.5,34.31,76.5,76.5C382.5,367.314,348.189,401.625,306,401.625z"/>
		</g>
	</g>
</g>
<g>
</g>
<g>
</g>
<g>
</g>
<g>
</g>
<g>
</g>
<g>
</g>
<g>
</g>
<g>
</g>
<g>
</g>
<g>
</g>
<g>
</g>
<g>
</g>
<g>
</g>
<g>
</g>
<g>
</g>
</svg>
