<?xml version="1.0" encoding="iso-8859-1"?>
<!-- Generator: Adobe Illustrator 16.0.0, SVG Export Plug-In . SVG Version: 6.00 Build 0)  -->
<!DOCTYPE svg PUBLIC "-//W3C//DTD SVG 1.1//EN" "http://www.w3.org/Graphics/SVG/1.1/DTD/svg11.dtd">
<svg version="1.1" id="Capa_1" xmlns="http://www.w3.org/2000/svg" xmlns:xlink="http://www.w3.org/1999/xlink" x="0px" y="0px"
	 width="612px" height="612px" viewBox="0 0 612 612" style="enable-background:new 0 0 612 612;" xml:space="preserve">
<g>
	<g id="Pill">
		<g>
			<path d="M430.312,0C381.773,0,336.16,18.896,301.85,53.225L53.225,301.831C18.896,336.141,0,381.792,0,430.312
				C0,530.489,81.511,612,181.688,612c48.539,0,94.152-18.896,128.463-53.225l248.625-248.606
				C593.104,275.859,612,230.208,612,181.688C612,81.511,530.489,0,430.312,0z M269.586,518.211
				c-23.485,23.485-54.697,36.414-87.898,36.414c-68.544,0-124.312-55.769-124.312-124.312c0-33.201,12.948-64.413,36.414-87.898
				l100.483-100.483c0.478,1.416,0.708,2.697,1.243,4.15c12.355,33.813,36.72,69.959,68.563,101.802
				c35.056,35.056,72.062,58.714,105.761,70.055L269.586,518.211z M518.211,269.586l-96.696,96.696
				c-11.455,7.038-61.773-3.863-116.854-58.943c-25.685-25.685-45.823-55.195-55.252-80.956
				c-7.497-20.388-6.101-32.436-3.232-36.318l96.237-96.237c23.485-23.523,54.697-36.452,87.898-36.452
				c68.544,0,124.312,55.769,124.312,124.312C554.625,214.889,541.678,246.101,518.211,269.586z"/>
		</g>
	</g>
</g>
<g>
</g>
<g>
</g>
<g>
</g>
<g>
</g>
<g>
</g>
<g>
</g>
<g>
</g>
<g>
</g>
<g>
</g>
<g>
</g>
<g>
</g>
<g>
</g>
<g>
</g>
<g>
</g>
<g>
</g>
</svg>
