<?xml version="1.0" encoding="iso-8859-1"?>
<!-- Generator: Adobe Illustrator 16.0.0, SVG Export Plug-In . SVG Version: 6.00 Build 0)  -->
<!DOCTYPE svg PUBLIC "-//W3C//DTD SVG 1.1//EN" "http://www.w3.org/Graphics/SVG/1.1/DTD/svg11.dtd">
<svg version="1.1" id="Capa_1" xmlns="http://www.w3.org/2000/svg" xmlns:xlink="http://www.w3.org/1999/xlink" x="0px" y="0px"
	 width="699.429px" height="699.429px" viewBox="0 0 699.429 699.429" style="enable-background:new 0 0 699.429 699.429;"
	 xml:space="preserve">
<g>
	<g id="Fir">
		<g>
			<path d="M649.769,595.87L522.365,414.105c23.497-6.382,46.643-14.054,69.199-22.949c9.334-3.694,16.48-11.453,19.365-21.07
				s1.225-20.021-4.547-28.24L376.578,13.989C370.458,5.202,360.076-0.022,349.693,0c-10.36,0-20.742,5.224-26.862,13.967
				L93.024,341.824c-5.77,8.218-7.431,18.623-4.546,28.24c2.885,9.596,10.033,17.377,19.366,21.07
				c22.578,8.896,45.725,16.568,69.222,22.95L49.66,595.848c-5.771,8.219-7.454,18.645-4.546,28.24
				c2.885,9.617,10.011,17.376,19.365,21.048c91.188,36.043,187.163,54.293,285.236,54.293c98.074,0,194.026-18.25,285.236-54.271
				c9.355-3.672,16.48-11.432,19.365-21.049C657.222,614.492,655.541,604.088,649.769,595.87z M127.996,598.428l130.706-186.485
				c6.404-9.114,7.716-20.83,3.541-31.125c-4.175-10.316-13.289-17.792-24.218-19.89c-22.425-4.306-44.676-9.901-66.489-16.787
				L349.715,89.942l178.18,254.198c-21.792,6.864-44.064,12.481-66.489,16.787c-10.929,2.098-20.043,9.573-24.218,19.89
				c-4.175,10.295-2.863,22.011,3.541,31.125l130.704,186.485C428.292,645.464,271.117,645.464,127.996,598.428z"/>
		</g>
	</g>
</g>
<g>
</g>
<g>
</g>
<g>
</g>
<g>
</g>
<g>
</g>
<g>
</g>
<g>
</g>
<g>
</g>
<g>
</g>
<g>
</g>
<g>
</g>
<g>
</g>
<g>
</g>
<g>
</g>
<g>
</g>
</svg>
