<?xml version="1.0" encoding="iso-8859-1"?>
<!-- Generator: Adobe Illustrator 16.0.0, SVG Export Plug-In . SVG Version: 6.00 Build 0)  -->
<!DOCTYPE svg PUBLIC "-//W3C//DTD SVG 1.1//EN" "http://www.w3.org/Graphics/SVG/1.1/DTD/svg11.dtd">
<svg version="1.1" id="Capa_1" xmlns="http://www.w3.org/2000/svg" xmlns:xlink="http://www.w3.org/1999/xlink" x="0px" y="0px"
	 width="612px" height="612px" viewBox="0 0 612 612" style="enable-background:new 0 0 612 612;" xml:space="preserve">
<g>
	<g id="Share">
		<g>
			<path d="M601.328,274.12L352.703,73.308c-8.606-6.961-20.406-8.319-30.39-3.577C312.35,74.493,306,84.572,306,95.626v87.268
				C134.831,197.505,0,341.478,0,516.376c0,15.836,12.852,28.688,28.688,28.688s28.688-12.852,28.688-28.688
				c0-33.756,87.458-97.69,248.625-104.595v85.47c0,11.055,6.35,21.133,16.333,25.896c10.002,4.762,21.821,3.366,30.39-3.558
				l248.625-200.812c6.731-5.45,10.652-13.674,10.652-22.338S608.079,279.552,601.328,274.12z M363.375,437.199v-54.697
				c0-15.836-12.852-28.688-28.688-28.688c-103.199,0-195.629,22.797-257.078,58.599
				c41.214-101.554,140.932-173.349,257.078-173.349c15.836,0,28.688-12.852,28.688-28.688v-54.697l174.267,140.76L363.375,437.199z
				"/>
		</g>
	</g>
</g>
<g>
</g>
<g>
</g>
<g>
</g>
<g>
</g>
<g>
</g>
<g>
</g>
<g>
</g>
<g>
</g>
<g>
</g>
<g>
</g>
<g>
</g>
<g>
</g>
<g>
</g>
<g>
</g>
<g>
</g>
</svg>
