<?xml version="1.0" encoding="iso-8859-1"?>
<!-- Generator: Adobe Illustrator 16.0.0, SVG Export Plug-In . SVG Version: 6.00 Build 0)  -->
<!DOCTYPE svg PUBLIC "-//W3C//DTD SVG 1.1//EN" "http://www.w3.org/Graphics/SVG/1.1/DTD/svg11.dtd">
<svg version="1.1" id="Capa_1" xmlns="http://www.w3.org/2000/svg" xmlns:xlink="http://www.w3.org/1999/xlink" x="0px" y="0px"
	 width="725.129px" height="725.129px" viewBox="0 0 725.129 725.129" style="enable-background:new 0 0 725.129 725.129;"
	 xml:space="preserve">
<g>
	<g id="Shield">
		<g>
			<path d="M635.834,149.917c-94.09-27.245-180.699-75.843-252.982-142.052C377.116,2.629,369.817,0,362.542,0
				c-7.231,0-14.507,2.606-20.242,7.865C270.017,74.074,183.43,122.672,89.295,149.917c-19.357,5.599-32.73,23.347-32.73,43.52
				v78.359c5.304,197.722,124.621,374.476,306,453.333c181.379-78.857,300.696-255.611,306-453.333v-78.359
				C668.564,173.264,655.214,155.539,635.834,149.917z M600.564,270.844c-4.624,160.163-96.968,305.773-238,379.01
				c-141.032-73.236-233.376-218.824-238-379.01v-60.565c86.632-27.427,168.051-71.898,238-129.902
				c69.949,58.026,151.368,102.476,238,129.902V270.844z"/>
		</g>
	</g>
</g>
<g>
</g>
<g>
</g>
<g>
</g>
<g>
</g>
<g>
</g>
<g>
</g>
<g>
</g>
<g>
</g>
<g>
</g>
<g>
</g>
<g>
</g>
<g>
</g>
<g>
</g>
<g>
</g>
<g>
</g>
</svg>
