<?xml version="1.0" encoding="iso-8859-1"?>
<!-- Generator: Adobe Illustrator 16.0.0, SVG Export Plug-In . SVG Version: 6.00 Build 0)  -->
<!DOCTYPE svg PUBLIC "-//W3C//DTD SVG 1.1//EN" "http://www.w3.org/Graphics/SVG/1.1/DTD/svg11.dtd">
<svg version="1.1" id="Capa_1" xmlns="http://www.w3.org/2000/svg" xmlns:xlink="http://www.w3.org/1999/xlink" x="0px" y="0px"
	 width="652.801px" height="652.801px" viewBox="0 0 652.801 652.801" style="enable-background:new 0 0 652.801 652.801;"
	 xml:space="preserve">
<g>
	<g id="Funnel">
		<g>
			<path d="M326.4,0c-71.788,0-306,6.609-306,91.8V153c0,4.529,1,8.996,2.958,13.117C70.278,265.22,148.492,347.453,244.8,399.473
				V591.6c0,5.02,1.224,9.955,3.611,14.402c15.402,28.867,45.288,46.799,77.989,46.799s62.587-17.932,77.989-46.799
				c2.387-4.447,3.61-9.383,3.61-14.402V399.473c96.309-52.02,174.522-134.252,221.442-233.355
				c1.958-4.121,2.958-8.588,2.958-13.117V91.8C632.4,6.609,398.188,0,326.4,0z M326.4,61.2c120.809,0,201.021,17.116,233.029,30.6
				c-32.008,13.484-112.221,30.6-233.029,30.6S125.379,105.284,93.371,91.8C125.379,78.315,205.592,61.2,326.4,61.2z
				 M363.896,353.369c-10.465,5.141-17.095,15.809-17.095,27.457V582.4c-10.2,11.545-30.601,11.545-40.8,0V380.826
				c0-11.648-6.63-22.316-17.095-27.457c-86.924-42.8-158.263-113.241-202.796-199.104C160.957,180.703,279.032,183.6,326.4,183.6
				c47.369,0,165.444-2.897,240.292-29.335C522.159,240.149,450.82,310.59,363.896,353.369z"/>
		</g>
	</g>
</g>
<g>
</g>
<g>
</g>
<g>
</g>
<g>
</g>
<g>
</g>
<g>
</g>
<g>
</g>
<g>
</g>
<g>
</g>
<g>
</g>
<g>
</g>
<g>
</g>
<g>
</g>
<g>
</g>
<g>
</g>
</svg>
