<?xml version="1.0" encoding="iso-8859-1"?>
<!-- Generator: Adobe Illustrator 16.0.0, SVG Export Plug-In . SVG Version: 6.00 Build 0)  -->
<!DOCTYPE svg PUBLIC "-//W3C//DTD SVG 1.1//EN" "http://www.w3.org/Graphics/SVG/1.1/DTD/svg11.dtd">
<svg version="1.1" id="Capa_1" xmlns="http://www.w3.org/2000/svg" xmlns:xlink="http://www.w3.org/1999/xlink" x="0px" y="0px"
	 width="612.02px" height="612.02px" viewBox="0 0 612.02 612.02" style="enable-background:new 0 0 612.02 612.02;"
	 xml:space="preserve">
<g>
	<g id="Label">
		<g>
			<path d="M600.821,11.208C593.649,4.036,583.915,0,573.779,0l-232.79,0.02c-10.136,0-19.871,4.016-27.043,11.207L11.217,313.938
				C4.026,321.109,0.01,330.844,0.01,340.979c0,10.137,4.016,19.871,11.207,27.043l232.79,232.79
				c7.478,7.478,17.251,11.207,27.043,11.207s19.584-3.729,27.042-11.207l302.729-302.73c7.172-7.172,11.188-16.907,11.188-27.062
				V38.25C612.01,28.114,607.993,18.379,600.821,11.208z M271.03,546.727L65.303,340.979l41.061-41.061L312.11,505.665
				L271.03,546.727z M554.635,263.103l-201.96,201.979L146.947,259.354l201.979-201.96l205.709-0.02V263.103z M439.885,210.375
				c21.114,0,38.25-17.136,38.25-38.25c0-21.114-17.136-38.25-38.25-38.25s-38.25,17.117-38.25,38.25
				C401.635,193.239,418.771,210.375,439.885,210.375z"/>
		</g>
	</g>
</g>
<g>
</g>
<g>
</g>
<g>
</g>
<g>
</g>
<g>
</g>
<g>
</g>
<g>
</g>
<g>
</g>
<g>
</g>
<g>
</g>
<g>
</g>
<g>
</g>
<g>
</g>
<g>
</g>
<g>
</g>
</svg>
