<?xml version="1.0" encoding="iso-8859-1"?>
<!-- Generator: Adobe Illustrator 16.0.0, SVG Export Plug-In . SVG Version: 6.00 Build 0)  -->
<!DOCTYPE svg PUBLIC "-//W3C//DTD SVG 1.1//EN" "http://www.w3.org/Graphics/SVG/1.1/DTD/svg11.dtd">
<svg version="1.1" id="Capa_1" xmlns="http://www.w3.org/2000/svg" xmlns:xlink="http://www.w3.org/1999/xlink" x="0px" y="0px"
	 width="612px" height="612px" viewBox="0 0 612 612" style="enable-background:new 0 0 612 612;" xml:space="preserve">
<g>
	<g id="Crop">
		<g>
			<path d="M603.585,48.979C608.787,43.777,612,36.605,612,28.688C612,12.833,599.148,0,583.312,0
				c-7.918,0-15.09,3.213-20.292,8.396L456.686,114.75H133.875V66.938c0-15.854-12.852-28.688-28.688-28.688
				S76.5,51.083,76.5,66.938v47.812H28.688C12.852,114.75,0,127.583,0,143.438s12.852,28.688,28.688,28.688H76.5v334.688
				c0,15.836,12.852,28.688,28.688,28.688h334.688v47.812c0,15.836,12.852,28.688,28.688,28.688s28.688-12.852,28.688-28.688V535.5
				h47.812c15.836,0,28.688-12.852,28.688-28.688s-12.852-28.688-28.688-28.688H497.25V155.314L603.585,48.979z M133.875,172.125
				h265.436L133.875,437.561V172.125z M439.875,478.125H174.439l265.436-265.436V478.125z"/>
		</g>
	</g>
</g>
<g>
</g>
<g>
</g>
<g>
</g>
<g>
</g>
<g>
</g>
<g>
</g>
<g>
</g>
<g>
</g>
<g>
</g>
<g>
</g>
<g>
</g>
<g>
</g>
<g>
</g>
<g>
</g>
<g>
</g>
</svg>
