<?xml version="1.0" encoding="iso-8859-1"?>
<!-- Generator: Adobe Illustrator 16.0.0, SVG Export Plug-In . SVG Version: 6.00 Build 0)  -->
<!DOCTYPE svg PUBLIC "-//W3C//DTD SVG 1.1//EN" "http://www.w3.org/Graphics/SVG/1.1/DTD/svg11.dtd">
<svg version="1.1" id="Capa_1" xmlns="http://www.w3.org/2000/svg" xmlns:xlink="http://www.w3.org/1999/xlink" x="0px" y="0px"
	 width="612px" height="612px" viewBox="0 0 612 612" style="enable-background:new 0 0 612 612;" xml:space="preserve">
<g>
	<g id="Archive">
		<g>
			<path d="M470.456,63.571c-7.191-9.907-18.686-15.759-30.944-15.759H172.488c-12.24,0-23.734,5.852-30.944,15.759L0,258.188
				v267.75c0,21.114,17.136,38.25,38.25,38.25h535.5c21.114,0,38.25-17.117,38.25-38.25v-267.75L470.456,63.571z M182.223,105.188
				h247.554l97.365,133.875h-77.705c-7.611,0-14.898,3.021-20.292,8.396l-68.085,68.104H250.939l-68.104-68.085
				c-5.374-5.394-12.661-8.415-20.272-8.415H84.857L182.223,105.188z M554.625,506.812H57.375V296.438h93.311l68.104,68.085
				c5.374,5.394,12.661,8.415,20.272,8.415h133.875c7.611,0,14.898-3.021,20.292-8.415l68.085-68.085h93.311V506.812z"/>
		</g>
	</g>
</g>
<g>
</g>
<g>
</g>
<g>
</g>
<g>
</g>
<g>
</g>
<g>
</g>
<g>
</g>
<g>
</g>
<g>
</g>
<g>
</g>
<g>
</g>
<g>
</g>
<g>
</g>
<g>
</g>
<g>
</g>
</svg>
