<?xml version="1.0" encoding="iso-8859-1"?>
<!-- Generator: Adobe Illustrator 16.0.0, SVG Export Plug-In . SVG Version: 6.00 Build 0)  -->
<!DOCTYPE svg PUBLIC "-//W3C//DTD SVG 1.1//EN" "http://www.w3.org/Graphics/SVG/1.1/DTD/svg11.dtd">
<svg version="1.1" id="Capa_1" xmlns="http://www.w3.org/2000/svg" xmlns:xlink="http://www.w3.org/1999/xlink" x="0px" y="0px"
	 width="652.801px" height="652.801px" viewBox="0 0 652.801 652.801" style="enable-background:new 0 0 652.801 652.801;"
	 xml:space="preserve">
<g>
	<g id="Profile">
		<g>
			<path d="M473.056,359.02C496.128,321.483,510,274.972,510,224.4C510,100.47,427.809,0,326.4,0S142.8,100.47,142.8,224.4
				c0,50.572,13.872,97.083,36.965,134.62C84.864,404.043,20.4,491.232,20.4,591.6V612c0,22.541,18.278,40.801,40.8,40.801h530.4
				c22.542,0,40.8-18.26,40.8-40.801v-20.4C632.4,491.211,567.937,404.043,473.056,359.02z M326.4,61.2
				c66.341,0,122.4,74.746,122.4,163.2s-56.06,163.2-122.4,163.2S204,312.854,204,224.4S260.06,61.2,326.4,61.2z M81.601,591.6
				c0-80.967,56.916-150.939,139.128-183.865c29.906,25.785,66.3,41.066,105.672,41.066s75.766-15.281,105.672-41.066
				C514.284,440.66,571.2,510.633,571.2,591.6H81.601z"/>
		</g>
	</g>
</g>
<g>
</g>
<g>
</g>
<g>
</g>
<g>
</g>
<g>
</g>
<g>
</g>
<g>
</g>
<g>
</g>
<g>
</g>
<g>
</g>
<g>
</g>
<g>
</g>
<g>
</g>
<g>
</g>
<g>
</g>
</svg>
