<?xml version="1.0" encoding="iso-8859-1"?>
<!-- Generator: Adobe Illustrator 16.0.0, SVG Export Plug-In . SVG Version: 6.00 Build 0)  -->
<!DOCTYPE svg PUBLIC "-//W3C//DTD SVG 1.1//EN" "http://www.w3.org/Graphics/SVG/1.1/DTD/svg11.dtd">
<svg version="1.1" id="Capa_1" xmlns="http://www.w3.org/2000/svg" xmlns:xlink="http://www.w3.org/1999/xlink" x="0px" y="0px"
	 width="612px" height="612px" viewBox="0 0 612 612" style="enable-background:new 0 0 612 612;" xml:space="preserve">
<g>
	<g id="Video">
		<g>
			<path d="M573.75,124.312h-19.125l-114.75,114.75v-95.625c0-21.133-17.136-38.25-38.25-38.25H38.25
				c-21.114,0-38.25,17.136-38.25,38.25v325.125c0,21.114,17.136,38.25,38.25,38.25h363.375c21.114,0,38.25-17.136,38.25-38.25
				v-95.625l114.75,114.75h19.125c21.114,0,38.25-17.117,38.25-38.25V162.562C612,141.448,594.864,124.312,573.75,124.312z
				 M382.5,449.438H57.375V162.562H382.5V449.438z M554.625,406.56L454.085,306l100.54-100.54V406.56z"/>
		</g>
	</g>
</g>
<g>
</g>
<g>
</g>
<g>
</g>
<g>
</g>
<g>
</g>
<g>
</g>
<g>
</g>
<g>
</g>
<g>
</g>
<g>
</g>
<g>
</g>
<g>
</g>
<g>
</g>
<g>
</g>
<g>
</g>
</svg>
