<?xml version="1.0" encoding="iso-8859-1"?>
<!-- Generator: Adobe Illustrator 16.0.0, SVG Export Plug-In . SVG Version: 6.00 Build 0)  -->
<!DOCTYPE svg PUBLIC "-//W3C//DTD SVG 1.1//EN" "http://www.w3.org/Graphics/SVG/1.1/DTD/svg11.dtd">
<svg version="1.1" id="Capa_1" xmlns="http://www.w3.org/2000/svg" xmlns:xlink="http://www.w3.org/1999/xlink" x="0px" y="0px"
	 width="725.334px" height="725.334px" viewBox="0 0 725.334 725.334" style="enable-background:new 0 0 725.334 725.334;"
	 xml:space="preserve">
<g>
	<g id="Mic">
		<g>
			<path d="M362.667,521.334c93.908,0,170-76.094,170-170.001V170c0-93.908-76.092-170-170-170s-170,76.092-170,170v181.333
				C192.667,445.24,268.759,521.334,362.667,521.334z M260.667,170c0-56.236,45.764-102,102-102c56.236,0,102,45.764,102,102
				v181.333c0,56.235-45.764,102.001-102,102.001c-56.236,0-102-45.766-102-102.001V170z M634.667,317.333
				c-18.768,0-34,15.209-34,34c0,131.239-106.782,238.001-238,238.001c-131.217,0-238-106.762-238-238.001c0-18.768-15.232-34-34-34
				s-34,15.232-34,34c0,157.511,119.022,287.073,272,304.005v35.996c0,18.768,15.232,34,34,34c18.768,0,34-15.232,34-34v-35.996
				c152.978-16.932,272-146.494,272-304.005C668.667,332.565,653.435,317.333,634.667,317.333z"/>
		</g>
	</g>
</g>
<g>
</g>
<g>
</g>
<g>
</g>
<g>
</g>
<g>
</g>
<g>
</g>
<g>
</g>
<g>
</g>
<g>
</g>
<g>
</g>
<g>
</g>
<g>
</g>
<g>
</g>
<g>
</g>
<g>
</g>
</svg>
