<?xml version="1.0" encoding="iso-8859-1"?>
<!-- Generator: Adobe Illustrator 16.0.0, SVG Export Plug-In . SVG Version: 6.00 Build 0)  -->
<!DOCTYPE svg PUBLIC "-//W3C//DTD SVG 1.1//EN" "http://www.w3.org/Graphics/SVG/1.1/DTD/svg11.dtd">
<svg version="1.1" id="Capa_1" xmlns="http://www.w3.org/2000/svg" xmlns:xlink="http://www.w3.org/1999/xlink" x="0px" y="0px"
	 width="612px" height="612px" viewBox="0 0 612 612" style="enable-background:new 0 0 612 612;" xml:space="preserve">
<g>
	<g id="Lifebuoy">
		<g>
			<path d="M306,0C136.992,0,0,137.012,0,306s136.992,306,306,306s306-137.012,306-306S475.008,0,306,0z M436.279,94.516
				c16.161,9.964,31.537,21.688,45.537,35.688c13.999,14,25.723,29.376,35.687,45.537l-87.573,40.832
				c-4.704-6.541-9.849-12.852-15.721-18.742c-5.891-5.891-12.221-11.016-18.742-15.74L436.279,94.516z M401.625,306
				c0,52.804-42.802,95.625-95.625,95.625S210.375,358.804,210.375,306c0-52.804,42.802-95.625,95.625-95.625
				S401.625,253.196,401.625,306z M306,57.738c26.45,0,52.899,4.188,78.26,12.565l-40.813,87.516
				c-24.575-6.196-50.317-6.196-74.912,0L227.74,70.323C253.1,61.927,279.55,57.738,306,57.738z M130.203,130.203
				c14-14,29.357-25.742,45.537-35.688l40.812,87.573c-6.521,4.724-12.833,9.85-18.742,15.74
				c-5.891,5.891-10.997,12.202-15.74,18.742l-87.554-40.851C104.461,159.56,116.204,144.203,130.203,130.203z M70.304,384.24
				c-8.377-25.379-12.546-51.81-12.546-78.24c0-26.45,4.188-52.9,12.565-78.26l87.497,40.813c-6.177,24.576-6.196,50.318,0,74.893
				L70.304,384.24z M175.74,517.484c-16.161-9.964-31.537-21.688-45.537-35.688c-13.98-13.999-25.723-29.376-35.688-45.536
				l87.554-40.832c4.743,6.521,9.869,12.871,15.74,18.742c5.89,5.891,12.24,11.017,18.742,15.74L175.74,517.484z M306,554.242
				c-26.45,0-52.881-4.188-78.259-12.546l40.812-87.516c24.576,6.177,50.318,6.177,74.893,0l40.813,87.516
				C358.881,550.073,332.45,554.242,306,554.242z M481.797,481.797c-13.999,14-29.376,25.724-45.536,35.688l-40.832-87.555
				c6.521-4.724,12.852-9.849,18.742-15.739s11.016-12.222,15.74-18.743l87.554,40.813
				C507.521,452.44,495.815,467.798,481.797,481.797z M454.181,343.428c6.177-24.576,6.177-50.318,0-74.894l87.497-40.813
				c8.376,25.379,12.564,51.81,12.564,78.26c0,26.431-4.188,52.862-12.546,78.241L454.181,343.428z"/>
		</g>
	</g>
</g>
<g>
</g>
<g>
</g>
<g>
</g>
<g>
</g>
<g>
</g>
<g>
</g>
<g>
</g>
<g>
</g>
<g>
</g>
<g>
</g>
<g>
</g>
<g>
</g>
<g>
</g>
<g>
</g>
<g>
</g>
</svg>
