<?xml version="1.0" encoding="iso-8859-1"?>
<!-- Generator: Adobe Illustrator 16.0.0, SVG Export Plug-In . SVG Version: 6.00 Build 0)  -->
<!DOCTYPE svg PUBLIC "-//W3C//DTD SVG 1.1//EN" "http://www.w3.org/Graphics/SVG/1.1/DTD/svg11.dtd">
<svg version="1.1" id="Capa_1" xmlns="http://www.w3.org/2000/svg" xmlns:xlink="http://www.w3.org/1999/xlink" x="0px" y="0px"
	 width="611.986px" height="611.986px" viewBox="0 0 611.986 611.986" style="enable-background:new 0 0 611.986 611.986;"
	 xml:space="preserve">
<g>
	<g id="Settings">
		<g>
			<path d="M592.856,154.107c-4.304-10.061-13.312-17.348-24.08-19.452c-2.066-0.401-4.189-0.593-6.255-0.593
				c-8.664,0-17.08,3.405-23.335,9.659l-102.079,102.08c-1.722,1.722-4.112,2.792-6.752,2.792c-2.659,0-5.05-1.09-6.771-2.792
				l-57.381-57.38c-1.74-1.74-2.793-4.131-2.793-6.771c0-2.659,1.071-5.049,2.793-6.771l102.08-102.08
				c7.746-7.746,11.15-18.84,9.065-29.608c-2.065-10.75-9.353-19.739-19.413-24.062C428.175,6.43,396.94,0.003,366.357,0.003
				c-51.623,0-101.296,18.304-138.574,55.563c-36.532,36.551-54.952,85.057-55.621,135.647
				c-0.344,24.769,3.692,50.017,11.744,74.595L11.211,438.504c-8.244,8.225-11.935,19.261-11.094,30.01
				c0.688,8.76,4.38,17.348,11.094,24.081l108.181,108.181c7.479,7.479,17.252,11.208,27.045,11.208
				c9.792,0,19.566-3.729,27.045-11.208L346.197,428.08c23.641,7.727,47.894,11.629,71.745,11.629
				c51.585,0,101.238-18.267,138.497-55.525C615.751,324.871,627.017,234.077,592.856,154.107z M515.871,343.635
				c-24.979,24.979-59.752,38.713-97.929,38.713c-17.941,0-36.073-2.965-53.899-8.799c-5.853-1.912-11.858-2.83-17.846-2.83
				c-14.976,0-29.646,5.872-40.568,16.812L146.437,546.704l-81.136-81.136l159.173-159.173
				c15.282-15.283,20.676-37.833,13.962-58.395c-6.216-19.031-9.276-38.253-8.913-56.788c0.746-36.608,14.269-70.482,38.809-95.06
				c25.018-24.999,59.809-38.77,98.025-38.77c10.845,0,21.919,1.128,32.917,3.309l-73.39,73.409
				c-12.796,12.643-19.834,29.532-19.834,47.549c0,17.884,6.962,34.677,19.605,47.339l57.381,57.38
				c12.643,12.643,29.455,19.605,47.338,19.605c17.884,0,34.678-6.962,47.339-19.605l73.619-73.619
				C561.106,262.174,548.559,310.928,515.871,343.635z"/>
		</g>
	</g>
</g>
<g>
</g>
<g>
</g>
<g>
</g>
<g>
</g>
<g>
</g>
<g>
</g>
<g>
</g>
<g>
</g>
<g>
</g>
<g>
</g>
<g>
</g>
<g>
</g>
<g>
</g>
<g>
</g>
<g>
</g>
</svg>
