<?xml version="1.0" encoding="iso-8859-1"?>
<!-- Generator: Adobe Illustrator 16.0.0, SVG Export Plug-In . SVG Version: 6.00 Build 0)  -->
<!DOCTYPE svg PUBLIC "-//W3C//DTD SVG 1.1//EN" "http://www.w3.org/Graphics/SVG/1.1/DTD/svg11.dtd">
<svg version="1.1" id="Capa_1" xmlns="http://www.w3.org/2000/svg" xmlns:xlink="http://www.w3.org/1999/xlink" x="0px" y="0px"
	 width="651.484px" height="651.484px" viewBox="0 0 651.484 651.484" style="enable-background:new 0 0 651.484 651.484;"
	 xml:space="preserve">
<g>
	<g id="Timer">
		<g>
			<path d="M569.022,130.119l27.816,27.816l34.903-34.903l-83.548-83.548l-34.903,34.903l27.816,27.816l-13.701,13.701
				c-42.327-37.194-94.841-62.799-152.862-72.137C371.721,19.17,351.091,0,325.742,0s-45.979,19.17-48.782,43.768
				C131.383,67.241,19.742,193.392,19.742,345.484c0,168.734,137.266,306,306,306s306-137.266,306-306
				c0-77.27-29.021-147.729-76.421-201.664L569.022,130.119z M572.517,345.484c0,136.081-110.693,246.773-246.774,246.773
				S78.968,481.565,78.968,345.484c0-136.082,110.693-246.774,246.774-246.774S572.517,209.403,572.517,345.484z M355.355,306.217
				V187.549c0-16.347-13.247-29.613-29.613-29.613s-29.613,13.267-29.613,29.613v118.668c-11.924,9.002-19.742,23.158-19.742,39.267
				s7.818,30.264,19.742,39.267v39.701c0,16.346,13.247,29.612,29.613,29.612s29.613-13.267,29.613-29.612v-39.701
				c11.904-9.003,19.741-23.157,19.741-39.267S367.26,315.22,355.355,306.217z"/>
		</g>
	</g>
</g>
<g>
</g>
<g>
</g>
<g>
</g>
<g>
</g>
<g>
</g>
<g>
</g>
<g>
</g>
<g>
</g>
<g>
</g>
<g>
</g>
<g>
</g>
<g>
</g>
<g>
</g>
<g>
</g>
<g>
</g>
</svg>
