<?xml version="1.0" encoding="iso-8859-1"?>
<!-- Generator: Adobe Illustrator 16.0.0, SVG Export Plug-In . SVG Version: 6.00 Build 0)  -->
<!DOCTYPE svg PUBLIC "-//W3C//DTD SVG 1.1//EN" "http://www.w3.org/Graphics/SVG/1.1/DTD/svg11.dtd">
<svg version="1.1" id="Capa_1" xmlns="http://www.w3.org/2000/svg" xmlns:xlink="http://www.w3.org/1999/xlink" x="0px" y="0px"
	 width="612px" height="612px" viewBox="0 0 612 612" style="enable-background:new 0 0 612 612;" xml:space="preserve">
<g>
	<g id="Round_x5F_Stats">
		<g>
			<path d="M306,0C137.009,0,0,137.009,0,306c0,169.011,137.009,306,306,306s306-136.989,306-306C612,137.009,474.991,0,306,0z
				 M335.613,61.18c112.41,13.523,201.684,102.816,215.206,215.207H335.613V61.18z M306,552.774
				C169.919,552.774,59.226,442.081,59.226,306c0-126.033,95.038-230.112,217.162-244.82v274.433h274.432
				C536.132,457.756,432.032,552.774,306,552.774z"/>
		</g>
	</g>
</g>
<g>
</g>
<g>
</g>
<g>
</g>
<g>
</g>
<g>
</g>
<g>
</g>
<g>
</g>
<g>
</g>
<g>
</g>
<g>
</g>
<g>
</g>
<g>
</g>
<g>
</g>
<g>
</g>
<g>
</g>
</svg>
