<?xml version="1.0" encoding="iso-8859-1"?>
<!-- Generator: Adobe Illustrator 16.0.0, SVG Export Plug-In . SVG Version: 6.00 Build 0)  -->
<!DOCTYPE svg PUBLIC "-//W3C//DTD SVG 1.1//EN" "http://www.w3.org/Graphics/SVG/1.1/DTD/svg11.dtd">
<svg version="1.1" id="Capa_1" xmlns="http://www.w3.org/2000/svg" xmlns:xlink="http://www.w3.org/1999/xlink" x="0px" y="0px"
	 width="792px" height="792px" viewBox="0 0 792 792" style="enable-background:new 0 0 792 792;" xml:space="preserve">
<g>
	<g id="Notepad">
		<g>
			<path d="M247.5,495h297v-74.25h-297V495z M643.5,74.25h-74.25v-49.5C569.25,11.063,558.187,0,544.5,0h-297
				c-13.687,0-24.75,11.063-24.75,24.75v49.5H148.5c-27.324,0-49.5,22.151-49.5,49.5V742.5c0,27.349,22.176,49.5,49.5,49.5h495
				c27.324,0,49.5-22.176,49.5-49.5V123.75C693,96.401,670.824,74.25,643.5,74.25z M297,74.25h198v74.25H297V74.25z M618.75,717.75
				h-445.5V148.5h49.5V198c0,13.687,11.063,24.75,24.75,24.75h297c13.687,0,24.75-11.063,24.75-24.75v-49.5h49.5V717.75z
				 M247.5,371.25h297V297h-297V371.25z"/>
		</g>
	</g>
</g>
<g>
</g>
<g>
</g>
<g>
</g>
<g>
</g>
<g>
</g>
<g>
</g>
<g>
</g>
<g>
</g>
<g>
</g>
<g>
</g>
<g>
</g>
<g>
</g>
<g>
</g>
<g>
</g>
<g>
</g>
</svg>
