<?xml version="1.0" encoding="iso-8859-1"?>
<!-- Generator: Adobe Illustrator 16.0.0, SVG Export Plug-In . SVG Version: 6.00 Build 0)  -->
<!DOCTYPE svg PUBLIC "-//W3C//DTD SVG 1.1//EN" "http://www.w3.org/Graphics/SVG/1.1/DTD/svg11.dtd">
<svg version="1.1" id="Capa_1" xmlns="http://www.w3.org/2000/svg" xmlns:xlink="http://www.w3.org/1999/xlink" x="0px" y="0px"
	 width="612px" height="612px" viewBox="0 0 612 612" style="enable-background:new 0 0 612 612;" xml:space="preserve">
<g>
	<g id="Cloud_x5F_Sun_x5F_Snow">
		<g>
			<path d="M186.585,432.878c-12.359,0-22.39,10.016-22.39,22.391c0,12.374,10.031,22.39,22.39,22.39s22.39-10.016,22.39-22.39
				C208.976,442.894,198.945,432.878,186.585,432.878z M261.22,567.22c-12.359,0-22.391,10.016-22.391,22.39
				c0,12.375,10.031,22.391,22.391,22.391s22.39-10.016,22.39-22.391C283.61,577.235,273.579,567.22,261.22,567.22z
				 M186.585,522.439c-12.359,0-22.39,10.016-22.39,22.39s10.031,22.391,22.39,22.391s22.39-10.017,22.39-22.391
				S198.945,522.439,186.585,522.439z M485.122,149.269c6.18,0,11.777-2.508,15.837-6.568l29.854-29.854
				c4.046-4.045,6.554-9.643,6.554-15.822c0-12.359-10.031-22.39-22.391-22.39c-6.18,0-11.777,2.507-15.837,6.553l-29.854,29.854
				c-4.045,4.06-6.553,9.658-6.553,15.837C462.731,139.237,472.763,149.269,485.122,149.269z M365.707,89.561
				c12.359,0,22.391-10.031,22.391-22.39V22.39c0-12.359-10.031-22.39-22.391-22.39s-22.39,10.031-22.39,22.39v44.781
				C343.317,79.53,353.348,89.561,365.707,89.561z M230.47,142.701c4.045,4.06,9.643,6.568,15.822,6.568
				c12.36,0,22.391-10.031,22.391-22.391c0-6.18-2.508-11.777-6.553-15.837l-29.854-29.854c-4.06-4.045-9.658-6.553-15.837-6.553
				c-12.359,0-22.39,10.031-22.39,22.39c0,6.18,2.508,11.777,6.553,15.837L230.47,142.701z M452.716,338.347
				c24.479-23.122,39.869-55.737,39.869-92.054c0-70.051-56.812-126.878-126.878-126.878c-42.108,0-79.336,20.584-102.413,52.184
				c-14.808-4.657-30.48-7.403-46.855-7.403c-83.307,0-151.239,65.036-156.254,147.089C24.435,329.958,0,367.334,0,410.488
				c0,61.842,50.109,111.951,111.951,111.951c12.375,0,22.39-10.017,22.39-22.391s-10.016-22.391-22.39-22.391
				c-37.033,0-67.171-30.137-67.171-67.17c0-25.062,13.853-47.871,36.153-59.514l22.405-11.718l1.552-25.241
				c3.598-58.901,52.603-105.04,111.548-105.04c34.436,0,66.469,15.613,87.919,42.825l12.897,16.375l20.838,0.672
				c36.406,1.179,64.932,30.6,64.932,67.006v29.839l27.555,11.494c19.524,8.149,32.152,27.077,32.152,48.229
				c0,28.809-23.435,52.243-52.243,52.243c-12.359,0-22.391,10.017-22.391,22.391s10.031,22.391,22.391,22.391
				c53.587,0,97.023-43.438,97.023-97.024C507.512,387.008,485.077,354.064,452.716,338.347z M436.565,287.207
				c-17.629-36.347-54.26-61.737-97.04-63.125c-9.852-12.494-21.658-23.331-34.794-32.361
				c15.031-16.792,36.705-27.525,60.976-27.525c45.273,0,82.098,36.824,82.098,82.097
				C447.805,261.25,443.596,275.146,436.565,287.207z M589.609,223.902h-44.78c-12.359,0-22.39,10.031-22.39,22.39
				c0,12.36,10.03,22.391,22.39,22.391h44.78c12.359,0,22.391-10.031,22.391-22.391C612,233.933,601.969,223.902,589.609,223.902z
				 M335.854,432.878c-12.359,0-22.39,10.016-22.39,22.391c0,12.374,10.03,22.39,22.39,22.39s22.391-10.016,22.391-22.39
				C358.244,442.894,348.213,432.878,335.854,432.878z M261.22,477.658c-12.359,0-22.391,10.017-22.391,22.391
				s10.031,22.391,22.391,22.391s22.39-10.017,22.39-22.391S273.579,477.658,261.22,477.658z M335.854,522.439
				c-12.359,0-22.39,10.016-22.39,22.39s10.03,22.391,22.39,22.391s22.391-10.017,22.391-22.391S348.213,522.439,335.854,522.439z"
				/>
		</g>
	</g>
</g>
<g>
</g>
<g>
</g>
<g>
</g>
<g>
</g>
<g>
</g>
<g>
</g>
<g>
</g>
<g>
</g>
<g>
</g>
<g>
</g>
<g>
</g>
<g>
</g>
<g>
</g>
<g>
</g>
<g>
</g>
</svg>
