<?xml version="1.0" encoding="iso-8859-1"?>
<!-- Generator: Adobe Illustrator 16.0.0, SVG Export Plug-In . SVG Version: 6.00 Build 0)  -->
<!DOCTYPE svg PUBLIC "-//W3C//DTD SVG 1.1//EN" "http://www.w3.org/Graphics/SVG/1.1/DTD/svg11.dtd">
<svg version="1.1" id="Capa_1" xmlns="http://www.w3.org/2000/svg" xmlns:xlink="http://www.w3.org/1999/xlink" x="0px" y="0px"
	 width="612px" height="612px" viewBox="0 0 612 612" style="enable-background:new 0 0 612 612;" xml:space="preserve">
<g>
	<g id="Cart">
		<g>
			<path d="M139.886,480.857c-28.974,0-52.457,23.483-52.457,52.457s23.483,52.457,52.457,52.457s52.457-23.483,52.457-52.457
				S168.859,480.857,139.886,480.857z M559.543,113.657H124.516L44.764,33.922c-4.739-4.756-11.296-7.694-18.535-7.694
				C11.733,26.229,0,37.961,0,52.457c0,7.239,2.938,13.796,7.694,18.535l62.249,62.267v260.17c0,28.974,23.483,52.457,52.457,52.457
				h332.229c21.122,0,39.343-12.502,47.666-30.495l104.914-227.314c3.06-6.679,4.791-14.128,4.791-21.962
				C612,137.141,588.499,113.657,559.543,113.657z M454.629,393.429H122.4V253.543h396.803L454.629,393.429z M543.421,201.086H122.4
				v-34.972h437.143l0.035-0.035L543.421,201.086z M419.657,480.857c-28.956,0-52.457,23.483-52.457,52.457
				s23.501,52.457,52.457,52.457s52.457-23.483,52.457-52.457S448.613,480.857,419.657,480.857z"/>
		</g>
	</g>
</g>
<g>
</g>
<g>
</g>
<g>
</g>
<g>
</g>
<g>
</g>
<g>
</g>
<g>
</g>
<g>
</g>
<g>
</g>
<g>
</g>
<g>
</g>
<g>
</g>
<g>
</g>
<g>
</g>
<g>
</g>
</svg>
