<?xml version="1.0" encoding="iso-8859-1"?>
<!-- Generator: Adobe Illustrator 16.0.0, SVG Export Plug-In . SVG Version: 6.00 Build 0)  -->
<!DOCTYPE svg PUBLIC "-//W3C//DTD SVG 1.1//EN" "http://www.w3.org/Graphics/SVG/1.1/DTD/svg11.dtd">
<svg version="1.1" id="Capa_1" xmlns="http://www.w3.org/2000/svg" xmlns:xlink="http://www.w3.org/1999/xlink" x="0px" y="0px"
	 width="612px" height="612px" viewBox="0 0 612 612" style="enable-background:new 0 0 612 612;" xml:space="preserve">
<g>
	<g id="Compass">
		<g>
			<path d="M306,0C136.992,0,0,137.012,0,306s136.992,306,306,306s306-137.012,306-306S475.008,0,306,0z M306,554.625
				C168.912,554.625,57.375,443.088,57.375,306S168.912,57.375,306,57.375S554.625,168.912,554.625,306S443.088,554.625,306,554.625
				z M420.75,172.125c-1.932,0-3.806,0.306-5.546,0.822l-136.974,41.54c-30.466,9.237-54.506,33.277-63.744,63.725l-41.521,136.973
				c-0.554,1.76-0.841,3.614-0.841,5.565c0,10.576,8.568,19.125,19.125,19.125c1.932,0,3.806-0.306,5.565-0.822l136.974-41.54
				c30.466-9.237,54.506-33.277,63.743-63.724l41.521-136.974c0.535-1.76,0.822-3.615,0.822-5.565
				C439.875,180.674,431.307,172.125,420.75,172.125z M306,344.25c-21.114,0-38.25-17.136-38.25-38.25
				c0-21.133,17.136-38.25,38.25-38.25s38.25,17.136,38.25,38.25S327.114,344.25,306,344.25z"/>
		</g>
	</g>
</g>
<g>
</g>
<g>
</g>
<g>
</g>
<g>
</g>
<g>
</g>
<g>
</g>
<g>
</g>
<g>
</g>
<g>
</g>
<g>
</g>
<g>
</g>
<g>
</g>
<g>
</g>
<g>
</g>
<g>
</g>
</svg>
