<?xml version="1.0" encoding="iso-8859-1"?>
<!-- Generator: Adobe Illustrator 16.0.0, SVG Export Plug-In . SVG Version: 6.00 Build 0)  -->
<!DOCTYPE svg PUBLIC "-//W3C//DTD SVG 1.1//EN" "http://www.w3.org/Graphics/SVG/1.1/DTD/svg11.dtd">
<svg version="1.1" id="Capa_1" xmlns="http://www.w3.org/2000/svg" xmlns:xlink="http://www.w3.org/1999/xlink" x="0px" y="0px"
	 width="631.125px" height="631.125px" viewBox="0 0 631.125 631.125" style="enable-background:new 0 0 631.125 631.125;"
	 xml:space="preserve">
<g>
	<g id="Cupcake">
		<g>
			<path d="M621.562,315.562c0-35.668-21.726-66.746-53.703-79.637c-26.736-75.582-86.177-134.028-159.196-161.396
				C399.005,31.958,361.022,0,315.562,0c-45.441,0-83.442,31.958-93.101,74.511c-73.019,27.387-132.459,85.814-159.196,161.396
				c-31.977,12.91-53.703,43.988-53.703,79.656c0,44.466,34.023,80.746,77.341,85.183c-0.554,3.404-0.841,6.904-0.841,10.442
				c0,5.527,0.669,10.997,1.989,16.275l38.25,153c7.478,29.815,34.177,50.662,64.949,50.662h248.625
				c30.772,0,57.471-20.847,64.93-50.662l38.25-152.962c1.339-5.316,2.008-10.786,2.008-16.313c0-3.558-0.287-7.038-0.822-10.442
				C587.539,396.309,621.562,360.028,621.562,315.562z M315.562,57.375c21.095,0,38.25,17.155,38.25,38.25
				s-17.155,38.25-38.25,38.25s-38.25-17.155-38.25-38.25S294.468,57.375,315.562,57.375z M487.4,413.521l-38.25,153
				c-0.86,3.5-4.131,7.229-9.275,7.229H191.25c-5.145,0-8.415-3.729-9.275-7.229l-38.25-153.038
				c-0.191-0.708-0.287-1.491-0.287-2.295c0-5.26,4.284-9.562,9.562-9.562h325.125c5.278,0,9.562,4.303,9.562,9.562
				C487.688,411.991,487.592,412.774,487.4,413.521z M535.5,344.25H95.625c-15.816,0-28.688-12.871-28.688-28.688
				c0-13.942,10.021-25.761,23.83-28.133l17.767-3.041l4.973-17.327c17.212-60.033,60.263-107.712,114.75-132.785
				c14.898,33.488,48.348,56.974,87.306,56.974c38.958,0,72.407-23.485,87.306-56.974c54.487,25.092,97.537,72.771,114.75,132.785
				l4.973,17.327l17.767,3.041c13.809,2.372,23.83,14.19,23.83,28.133C564.188,331.379,551.316,344.25,535.5,344.25z"/>
		</g>
	</g>
</g>
<g>
</g>
<g>
</g>
<g>
</g>
<g>
</g>
<g>
</g>
<g>
</g>
<g>
</g>
<g>
</g>
<g>
</g>
<g>
</g>
<g>
</g>
<g>
</g>
<g>
</g>
<g>
</g>
<g>
</g>
</svg>
