<?xml version="1.0" encoding="iso-8859-1"?>
<!-- Generator: Adobe Illustrator 16.0.0, SVG Export Plug-In . SVG Version: 6.00 Build 0)  -->
<!DOCTYPE svg PUBLIC "-//W3C//DTD SVG 1.1//EN" "http://www.w3.org/Graphics/SVG/1.1/DTD/svg11.dtd">
<svg version="1.1" id="Capa_1" xmlns="http://www.w3.org/2000/svg" xmlns:xlink="http://www.w3.org/1999/xlink" x="0px" y="0px"
	 width="612px" height="612px" viewBox="0 0 612 612" style="enable-background:new 0 0 612 612;" xml:space="preserve">
<g>
	<g id="Aperture">
		<g>
			<path d="M306,0C137.279,0,0,137.279,0,306s137.279,306,306,306s306-137.279,306-306S474.721,0,306,0z M542.213,228.792
				l-170.002-81.951l82.467-39.627C495.146,137.528,526.129,179.737,542.213,228.792z M243.289,65.694
				c20.081-5.24,41.023-8.319,62.711-8.319c30.562,0,59.689,5.814,86.751,15.931l-169.926,81.721L243.289,65.694z M206.435,226.555
				l99.603-47.889l99.526,47.984l24.557,107.712l-68.888,86.388H250.709l-68.907-86.56L206.435,226.555z M178.149,93.177
				l-42.056,183.619l-57.088-71.719C99.852,158.374,134.678,119.378,178.149,93.177z M85.661,420.75
				C67.684,386.383,57.375,347.387,57.375,306c0-11.188,0.995-22.108,2.429-32.914L177.365,420.75H85.661z M258.188,549.901
				c-51.044-9.983-96.447-35.668-131.178-71.776h188.458L258.188,549.901z M328.759,553.478l117.676-147.55l20.368,89.353
				C428.859,527.582,381.181,548.696,328.759,553.478z M513.621,442.399l-41.903-183.868l82.506,39.78
				c0.076,2.563,0.401,5.087,0.401,7.688C554.625,356.356,539.479,403.193,513.621,442.399z"/>
		</g>
	</g>
</g>
<g>
</g>
<g>
</g>
<g>
</g>
<g>
</g>
<g>
</g>
<g>
</g>
<g>
</g>
<g>
</g>
<g>
</g>
<g>
</g>
<g>
</g>
<g>
</g>
<g>
</g>
<g>
</g>
<g>
</g>
</svg>
