<?xml version="1.0" encoding="iso-8859-1"?>
<!-- Generator: Adobe Illustrator 16.0.0, SVG Export Plug-In . SVG Version: 6.00 Build 0)  -->
<!DOCTYPE svg PUBLIC "-//W3C//DTD SVG 1.1//EN" "http://www.w3.org/Graphics/SVG/1.1/DTD/svg11.dtd">
<svg version="1.1" id="Capa_1" xmlns="http://www.w3.org/2000/svg" xmlns:xlink="http://www.w3.org/1999/xlink" x="0px" y="0px"
	 width="612px" height="612px" viewBox="0 0 612 612" style="enable-background:new 0 0 612 612;" xml:space="preserve">
<g>
	<g id="Globus">
		<g>
			<path d="M306,0C137.266,0,0,137.266,0,306s137.266,306,306,306s306-137.266,306-306S474.734,0,306,0z M69.255,375.097
				C62.838,353.144,59.226,330.006,59.226,306c0-24.006,3.613-47.144,10.029-69.097h73.203c-2.705,22.17-4.265,45.229-4.265,69.097
				s1.56,46.927,4.265,69.097H69.255z M95.61,434.322h57.686c8.055,32.555,19.031,61.99,32.496,87.003
				C148.755,500.576,117.741,470.47,95.61,434.322z M153.296,177.677H95.61c22.13-36.147,53.145-66.254,90.181-87.002
				C172.327,115.688,161.351,145.123,153.296,177.677z M276.387,542.034c-24.421-17.432-47.361-55.475-62.167-107.712h62.167
				V542.034z M276.387,375.097h-74.309c-2.922-21.657-4.659-44.695-4.659-69.097c0-24.401,1.737-47.44,4.659-69.097h74.309V375.097z
				 M276.387,177.677H214.22c14.807-52.237,37.747-90.28,62.167-107.712V177.677z M516.39,177.677h-57.686
				c-8.055-32.554-19.031-61.99-32.495-87.002C463.244,111.443,494.259,141.53,516.39,177.677z M335.613,69.965
				c24.42,17.432,47.36,55.475,62.167,107.712h-62.167V69.965z M335.613,542.034V434.322h62.167
				C382.974,486.56,360.033,524.603,335.613,542.034z M409.922,375.097h-74.309V236.903h74.309
				c2.922,21.657,4.659,44.696,4.659,69.097C414.581,330.401,412.844,353.439,409.922,375.097z M426.188,521.325
				c13.484-25.032,24.441-54.448,32.496-87.003h57.686C494.259,470.47,463.244,500.576,426.188,521.325z M469.542,375.097
				c2.705-22.17,4.265-45.229,4.265-69.097c0-23.888-1.56-46.927-4.265-69.097h73.203c6.416,21.953,10.029,45.09,10.029,69.097
				c0,24.006-3.613,47.144-10.029,69.097H469.542z"/>
		</g>
	</g>
</g>
<g>
</g>
<g>
</g>
<g>
</g>
<g>
</g>
<g>
</g>
<g>
</g>
<g>
</g>
<g>
</g>
<g>
</g>
<g>
</g>
<g>
</g>
<g>
</g>
<g>
</g>
<g>
</g>
<g>
</g>
</svg>
