<?xml version="1.0" encoding="iso-8859-1"?>
<!-- Generator: Adobe Illustrator 16.0.0, SVG Export Plug-In . SVG Version: 6.00 Build 0)  -->
<!DOCTYPE svg PUBLIC "-//W3C//DTD SVG 1.1//EN" "http://www.w3.org/Graphics/SVG/1.1/DTD/svg11.dtd">
<svg version="1.1" id="Capa_1" xmlns="http://www.w3.org/2000/svg" xmlns:xlink="http://www.w3.org/1999/xlink" x="0px" y="0px"
	 width="612px" height="612px" viewBox="0 0 612 612" style="enable-background:new 0 0 612 612;" xml:space="preserve">
<g>
	<g id="Settings_x5F_Alt">
		<g>
			<path d="M573.75,267.75h-22.376c-6.196-40.067-21.879-76.901-44.811-108.248l17.71-17.709
				c7.497-7.478,11.227-17.251,11.227-27.043s-3.729-19.565-11.227-27.043C516.814,80.229,507.022,76.5,497.23,76.5
				s-19.564,3.729-27.042,11.207l-17.71,17.71c-31.327-22.931-68.162-38.594-108.229-44.791V38.25C344.25,17.136,327.133,0,306,0
				c-21.114,0-38.25,17.136-38.25,38.25v22.376c-40.067,6.197-76.902,21.898-108.248,44.81l-17.729-17.729
				c-7.458-7.497-17.25-11.226-27.062-11.226c-9.773,0-19.546,3.729-27.024,11.226c-7.478,7.478-11.207,17.251-11.207,27.043
				s3.729,19.565,11.207,27.043l17.729,17.748c-22.931,31.308-38.594,68.142-44.791,108.209H38.25C17.136,267.75,0,284.886,0,306
				s17.136,38.25,38.25,38.25h22.376c6.196,40.066,21.879,76.901,44.81,108.247l-17.729,17.71
				c-7.497,7.479-11.226,17.289-11.207,27.119c0.019,9.792,3.749,19.546,11.207,26.967c7.478,7.497,17.27,11.207,27.043,11.207
				c9.811,0,19.584-3.729,27.043-11.207l17.729-17.71c31.346,22.931,68.162,38.595,108.229,44.791v22.376
				c0,21.133,17.117,38.25,38.25,38.25c21.133,0,38.25-17.117,38.25-38.25v-22.376c40.066-6.196,76.901-21.879,108.229-44.811
				l17.71,17.71c7.497,7.497,17.289,11.227,27.1,11.207c9.792-0.019,19.546-3.748,26.985-11.207
				c7.497-7.478,11.207-17.27,11.207-27.043c0-9.811-3.729-19.584-11.207-27.042l-17.71-17.691
				c22.932-31.346,38.614-68.181,44.811-108.247h22.376c21.114,0,38.25-17.136,38.25-38.25S594.883,267.75,573.75,267.75z
				 M306,497.25c-105.455,0-191.25-85.795-191.25-191.25S200.545,114.75,306,114.75S497.25,200.545,497.25,306
				S411.455,497.25,306,497.25z M306,191.25c-63.361,0-114.75,51.37-114.75,114.75c0,63.38,51.37,114.75,114.75,114.75
				c63.38,0,114.75-51.37,114.75-114.75C420.75,242.62,369.38,191.25,306,191.25z M306,363.375
				c-31.633,0-57.375-25.742-57.375-57.375s25.742-57.375,57.375-57.375s57.375,25.742,57.375,57.375S337.633,363.375,306,363.375z"
				/>
		</g>
	</g>
</g>
<g>
</g>
<g>
</g>
<g>
</g>
<g>
</g>
<g>
</g>
<g>
</g>
<g>
</g>
<g>
</g>
<g>
</g>
<g>
</g>
<g>
</g>
<g>
</g>
<g>
</g>
<g>
</g>
<g>
</g>
</svg>
