<?xml version="1.0" encoding="iso-8859-1"?>
<!-- Generator: Adobe Illustrator 16.0.0, SVG Export Plug-In . SVG Version: 6.00 Build 0)  -->
<!DOCTYPE svg PUBLIC "-//W3C//DTD SVG 1.1//EN" "http://www.w3.org/Graphics/SVG/1.1/DTD/svg11.dtd">
<svg version="1.1" id="Capa_1" xmlns="http://www.w3.org/2000/svg" xmlns:xlink="http://www.w3.org/1999/xlink" x="0px" y="0px"
	 width="612px" height="612px" viewBox="0 0 612 612" style="enable-background:new 0 0 612 612;" xml:space="preserve">
<g>
	<g id="Cloud_x5F_download">
		<g>
			<path d="M387,468c-7.452,0-14.202,3.024-19.08,7.902L342,501.822V332.784c10.872-8.208,18-21.132,18-35.784
				c0-24.858-20.142-45-45-45c-24.858,0-45,20.142-45,45c0,14.67,7.128,27.576,18,35.784v169.038l-25.92-25.92
				C257.202,471.024,250.452,468,243,468c-14.904,0-27,12.096-27,27c0,7.452,3.024,14.202,7.92,19.08l72,72
				c4.878,4.896,11.628,7.92,19.08,7.92s14.202-3.024,19.098-7.902l72-72C410.976,509.202,414,502.452,414,495
				C414,480.096,401.904,468,387,468z M540,225c0-73.08-58.086-132.426-130.572-134.766C374.814,46.296,321.282,18,261,18
				C160.542,18,78.624,96.426,72.576,195.372C29.466,217.908,0,262.962,0,315c0,74.574,60.426,135,135,135h36
				c14.904,0,27-12.096,27-27s-12.096-27-27-27h-36c-44.658,0-81-36.342-81-81c0-30.222,16.704-57.726,43.596-71.766l27.018-14.13
				l1.872-30.438C130.824,127.638,189.918,72,261,72c41.526,0,80.154,18.828,106.02,51.642l15.553,19.746l25.128,0.81
				C451.602,145.62,486,181.116,486,225v35.982l33.229,13.86C542.771,284.67,558,307.494,558,333c0,34.74-28.26,63-63,63h-36
				c-14.904,0-27,12.096-27,27s12.096,27,27,27h36c64.62,0,117-52.38,117-117C612,284.328,582.282,242.64,540,225z"/>
		</g>
	</g>
</g>
<g>
</g>
<g>
</g>
<g>
</g>
<g>
</g>
<g>
</g>
<g>
</g>
<g>
</g>
<g>
</g>
<g>
</g>
<g>
</g>
<g>
</g>
<g>
</g>
<g>
</g>
<g>
</g>
<g>
</g>
</svg>
