<?xml version="1.0" encoding="iso-8859-1"?>
<!-- Generator: Adobe Illustrator 16.0.0, SVG Export Plug-In . SVG Version: 6.00 Build 0)  -->
<!DOCTYPE svg PUBLIC "-//W3C//DTD SVG 1.1//EN" "http://www.w3.org/Graphics/SVG/1.1/DTD/svg11.dtd">
<svg version="1.1" id="Capa_1" xmlns="http://www.w3.org/2000/svg" xmlns:xlink="http://www.w3.org/1999/xlink" x="0px" y="0px"
	 width="792px" height="792px" viewBox="0 0 792 792" style="enable-background:new 0 0 792 792;" xml:space="preserve">
<g>
	<g id="Bulb">
		<g>
			<path d="M396,0C232.229,0,99,133.229,99,297c0,102.836,52.247,196.911,139.763,251.658c5.396,3.366,8.737,9.404,8.737,15.741
				V717.75c0,40.937,33.313,74.25,74.25,74.25h148.5c40.937,0,74.25-33.313,74.25-74.25V564.399c0-6.337,3.366-12.375,8.762-15.767
				C640.777,493.911,693,399.836,693,297C693,133.229,559.771,0,396,0z M321.75,717.75v-49.5h148.524l0.025,49.5H321.75z
				 M321.75,618.75v-49.5h148.5l0.024,49.5H321.75z M396,519.75c-123.032,0-222.75-99.718-222.75-222.75S272.968,74.25,396,74.25
				S618.75,173.968,618.75,297S519.032,519.75,396,519.75z"/>
		</g>
	</g>
</g>
<g>
</g>
<g>
</g>
<g>
</g>
<g>
</g>
<g>
</g>
<g>
</g>
<g>
</g>
<g>
</g>
<g>
</g>
<g>
</g>
<g>
</g>
<g>
</g>
<g>
</g>
<g>
</g>
<g>
</g>
</svg>
