<?xml version="1.0" encoding="iso-8859-1"?>
<!-- Generator: Adobe Illustrator 16.0.0, SVG Export Plug-In . SVG Version: 6.00 Build 0)  -->
<!DOCTYPE svg PUBLIC "-//W3C//DTD SVG 1.1//EN" "http://www.w3.org/Graphics/SVG/1.1/DTD/svg11.dtd">
<svg version="1.1" id="Capa_1" xmlns="http://www.w3.org/2000/svg" xmlns:xlink="http://www.w3.org/1999/xlink" x="0px" y="0px"
	 width="792px" height="792px" viewBox="0 0 792 792" style="enable-background:new 0 0 792 792;" xml:space="preserve">
<g>
	<g id="Notepad_1_">
		<g>
			<path d="M519.75,396h-247.5v74.25h247.5V396z M519.75,544.5h-247.5v74.25h247.5V544.5z M618.75,49.5H544.5V37.125
				C544.5,16.632,527.868,0,507.375,0S470.25,16.632,470.25,37.125V49.5h-148.5V37.125C321.75,16.632,305.143,0,284.625,0
				S247.5,16.632,247.5,37.125V49.5h-74.25C132.239,49.5,99,82.739,99,123.75v643.5c0,13.687,11.088,24.75,24.75,24.75h544.5
				c13.687,0,24.75-11.063,24.75-24.75v-643.5C693,82.739,659.761,49.5,618.75,49.5z M618.75,717.75h-445.5V297h445.5V717.75z
				 M618.75,222.75h-445.5v-99h74.25v49.5h74.25v-49.5h148.5v49.5h74.25v-49.5h74.25V222.75z"/>
		</g>
	</g>
</g>
<g>
</g>
<g>
</g>
<g>
</g>
<g>
</g>
<g>
</g>
<g>
</g>
<g>
</g>
<g>
</g>
<g>
</g>
<g>
</g>
<g>
</g>
<g>
</g>
<g>
</g>
<g>
</g>
<g>
</g>
</svg>
