<?xml version="1.0" encoding="iso-8859-1"?>
<!-- Generator: Adobe Illustrator 16.0.0, SVG Export Plug-In . SVG Version: 6.00 Build 0)  -->
<!DOCTYPE svg PUBLIC "-//W3C//DTD SVG 1.1//EN" "http://www.w3.org/Graphics/SVG/1.1/DTD/svg11.dtd">
<svg version="1.1" id="Capa_1" xmlns="http://www.w3.org/2000/svg" xmlns:xlink="http://www.w3.org/1999/xlink" x="0px" y="0px"
	 width="612.004px" height="612.005px" viewBox="0 0 612.004 612.005" style="enable-background:new 0 0 612.004 612.005;"
	 xml:space="preserve">
<g>
	<g id="Antenna">
		<g>
			<path d="M603.528,451.699L402.2,250.37l59.784-59.785c2.181,0.306,4.322,0.669,6.579,0.669c26.412,0,47.812-21.401,47.812-47.812
				s-21.4-47.812-47.812-47.812s-47.812,21.401-47.812,47.812c0,2.257,0.363,4.418,0.669,6.579l-59.784,59.785L160.306,8.477
				c-11.303-11.303-29.605-11.303-40.908,0C54.736,73.139,19.125,159.086,19.125,250.523c0,62.615,17.06,122.495,48.367,174.897
				C28.516,437.527,0,473.425,0,516.38c0,52.823,42.821,95.625,95.625,95.625c42.955,0,78.853-28.496,90.939-67.492
				c52.402,31.289,112.264,48.367,174.898,48.367c91.437,0,177.403-35.61,242.064-100.272
				C614.831,481.305,614.831,463.002,603.528,451.699z M95.625,554.63c-21.114,0-38.25-17.117-38.25-38.25
				c0-21.114,17.136-38.25,38.25-38.25s38.25,17.136,38.25,38.25S116.739,554.63,95.625,554.63z M361.463,535.008
				c-75.984,0-147.416-29.587-201.157-83.309c-53.741-53.741-83.309-125.192-83.309-201.176c0-66.249,22.491-129.056,63.878-179.68
				l400.267,400.268C490.518,512.536,427.731,535.008,361.463,535.008z"/>
		</g>
	</g>
</g>
<g>
</g>
<g>
</g>
<g>
</g>
<g>
</g>
<g>
</g>
<g>
</g>
<g>
</g>
<g>
</g>
<g>
</g>
<g>
</g>
<g>
</g>
<g>
</g>
<g>
</g>
<g>
</g>
<g>
</g>
</svg>
