<?xml version="1.0" encoding="iso-8859-1"?>
<!-- Generator: Adobe Illustrator 16.0.0, SVG Export Plug-In . SVG Version: 6.00 Build 0)  -->
<!DOCTYPE svg PUBLIC "-//W3C//DTD SVG 1.1//EN" "http://www.w3.org/Graphics/SVG/1.1/DTD/svg11.dtd">
<svg version="1.1" id="Capa_1" xmlns="http://www.w3.org/2000/svg" xmlns:xlink="http://www.w3.org/1999/xlink" x="0px" y="0px"
	 width="612px" height="612px" viewBox="0 0 612 612" style="enable-background:new 0 0 612 612;" xml:space="preserve">
<g>
	<g id="Piano">
		<g>
			<path d="M558,54H54C24.228,54,0,78.228,0,108v396c0,29.771,24.228,54,54,54h504c29.771,0,54-24.229,54-54V108
				C612,78.228,587.771,54,558,54z M180,504H54V108h72v252c0,19.89,16.128,36,36,36h18V504z M216,342h-36V108h36V342z M378,504H234
				V396c19.872,0,36-16.11,36-36V108h72v252c0,19.89,16.128,36,36,36V504z M396,108h36v234h-36V108z M432,504V396h18
				c19.872,0,36-16.11,36-36V108h72l0.036,396H432z"/>
		</g>
	</g>
</g>
<g>
</g>
<g>
</g>
<g>
</g>
<g>
</g>
<g>
</g>
<g>
</g>
<g>
</g>
<g>
</g>
<g>
</g>
<g>
</g>
<g>
</g>
<g>
</g>
<g>
</g>
<g>
</g>
<g>
</g>
</svg>
