<?xml version="1.0" encoding="iso-8859-1"?>
<!-- Generator: Adobe Illustrator 16.0.0, SVG Export Plug-In . SVG Version: 6.00 Build 0)  -->
<!DOCTYPE svg PUBLIC "-//W3C//DTD SVG 1.1//EN" "http://www.w3.org/Graphics/SVG/1.1/DTD/svg11.dtd">
<svg version="1.1" id="Capa_1" xmlns="http://www.w3.org/2000/svg" xmlns:xlink="http://www.w3.org/1999/xlink" x="0px" y="0px"
	 width="612px" height="612px" viewBox="0 0 612 612" style="enable-background:new 0 0 612 612;" xml:space="preserve">
<g>
	<g id="Image">
		<g>
			<path d="M172.125,267.75c21.133,0,38.25-17.117,38.25-38.25s-17.136-38.25-38.25-38.25s-38.25,17.117-38.25,38.25
				S151.011,267.75,172.125,267.75z M573.75,57.375H38.25C17.136,57.375,0,74.492,0,95.625v420.75
				c0,21.114,17.136,38.25,38.25,38.25h535.5c21.114,0,38.25-17.136,38.25-38.25V95.625C612,74.492,594.864,57.375,573.75,57.375z
				 M554.625,497.25H57.375V392.101c29.758,13.962,64.585,28.649,127.392,28.649c67.033,0,102.319-16.715,133.436-31.441
				c29.376-13.923,54.735-25.934,108.878-25.934c54.144,0,79.483,12.011,108.859,25.934c5.986,2.83,12.183,5.737,18.686,8.587
				V497.25L554.625,497.25z M554.625,334.707C524.828,320.707,489.963,306,427.08,306c-67.033,0-102.318,16.696-133.435,31.441
				c-29.395,13.923-54.754,25.934-108.878,25.934c-54.085,0-79.426-12.011-108.783-25.914c-5.967-2.85-12.144-5.719-18.608-8.568
				V114.75h497.25V334.707z"/>
		</g>
	</g>
</g>
<g>
</g>
<g>
</g>
<g>
</g>
<g>
</g>
<g>
</g>
<g>
</g>
<g>
</g>
<g>
</g>
<g>
</g>
<g>
</g>
<g>
</g>
<g>
</g>
<g>
</g>
<g>
</g>
<g>
</g>
</svg>
