<?xml version="1.0" encoding="iso-8859-1"?>
<!-- Generator: Adobe Illustrator 16.0.0, SVG Export Plug-In . SVG Version: 6.00 Build 0)  -->
<!DOCTYPE svg PUBLIC "-//W3C//DTD SVG 1.1//EN" "http://www.w3.org/Graphics/SVG/1.1/DTD/svg11.dtd">
<svg version="1.1" id="Capa_1" xmlns="http://www.w3.org/2000/svg" xmlns:xlink="http://www.w3.org/1999/xlink" x="0px" y="0px"
	 width="612px" height="612px" viewBox="0 0 612 612" style="enable-background:new 0 0 612 612;" xml:space="preserve">
<g>
	<g id="Printer_2_">
		<g>
			<path d="M573.75,133.875h-76.5V0h-382.5v133.875h-76.5c-21.133,0-38.25,17.117-38.25,38.25v306
				c0,21.133,17.117,38.25,38.25,38.25h76.5V612h382.5v-95.625h76.5c21.133,0,38.25-17.117,38.25-38.25v-306
				C612,150.992,594.883,133.875,573.75,133.875z M172.125,57.375h267.75v76.5h-267.75V57.375z M439.875,554.625h-267.75V420.75
				h267.75V554.625z M554.625,459H497.25v-95.625h-382.5V459H57.375V191.25h497.25V459z M497.25,229.5h-57.375v57.375h57.375V229.5z
				"/>
		</g>
	</g>
</g>
<g>
</g>
<g>
</g>
<g>
</g>
<g>
</g>
<g>
</g>
<g>
</g>
<g>
</g>
<g>
</g>
<g>
</g>
<g>
</g>
<g>
</g>
<g>
</g>
<g>
</g>
<g>
</g>
<g>
</g>
</svg>
