<?xml version="1.0" encoding="iso-8859-1"?>
<!-- Generator: Adobe Illustrator 16.0.0, SVG Export Plug-In . SVG Version: 6.00 Build 0)  -->
<!DOCTYPE svg PUBLIC "-//W3C//DTD SVG 1.1//EN" "http://www.w3.org/Graphics/SVG/1.1/DTD/svg11.dtd">
<svg version="1.1" id="Capa_1" xmlns="http://www.w3.org/2000/svg" xmlns:xlink="http://www.w3.org/1999/xlink" x="0px" y="0px"
	 width="612px" height="612px" viewBox="0 0 612 612" style="enable-background:new 0 0 612 612;" xml:space="preserve">
<g>
	<g id="Route">
		<g>
			<path d="M486,90H342V54c0-19.872-16.128-36-36-36h-90c-19.89,0-36,16.11-36,36v36H36c-19.872,0-36,16.11-36,36v180
				c0,19.872,16.128,36,36,36h144v216c0,19.872,16.11,36,36,36h90c19.872,0,36-16.128,36-36V342h144l126-126L486,90z M234,72h54v18
				h-54V72z M288,540h-54V342h54V540z M463.626,288H54V144h409.626l72,72L463.626,288z"/>
		</g>
	</g>
</g>
<g>
</g>
<g>
</g>
<g>
</g>
<g>
</g>
<g>
</g>
<g>
</g>
<g>
</g>
<g>
</g>
<g>
</g>
<g>
</g>
<g>
</g>
<g>
</g>
<g>
</g>
<g>
</g>
<g>
</g>
</svg>
