<?xml version="1.0" encoding="iso-8859-1"?>
<!-- Generator: Adobe Illustrator 16.0.0, SVG Export Plug-In . SVG Version: 6.00 Build 0)  -->
<!DOCTYPE svg PUBLIC "-//W3C//DTD SVG 1.1//EN" "http://www.w3.org/Graphics/SVG/1.1/DTD/svg11.dtd">
<svg version="1.1" id="Capa_1" xmlns="http://www.w3.org/2000/svg" xmlns:xlink="http://www.w3.org/1999/xlink" x="0px" y="0px"
	 width="612.017px" height="612.017px" viewBox="0 0 612.017 612.017" style="enable-background:new 0 0 612.017 612.017;"
	 xml:space="preserve">
<g>
	<g id="Saturn">
		<g>
			<path d="M596.275,15.708C561.978-18.59,478.268,5.149,380.364,68.696c-23.51-7.384-48.473-11.382-74.375-11.382
				c-137.118,0-248.679,111.562-248.679,248.679c0,25.902,3.998,50.865,11.382,74.375C5.145,478.253-18.575,561.981,15.724,596.279
				c34.318,34.318,118.084,10.655,216.045-52.949c23.453,7.365,48.378,11.344,74.241,11.344
				c137.137,0,248.679-111.562,248.679-248.68c0-25.862-3.979-50.769-11.324-74.24C606.931,133.793,630.574,50.026,596.275,15.708z
				 M66.435,545.53c-18.345-18.345-7.919-61.845,23.338-117.147c22.266,39.177,54.824,71.716,94.02,93.943
				C128.337,553.717,84.837,563.933,66.435,545.53z M114.698,305.994c0-105.478,85.813-191.292,191.292-191.292
				c82.524,0,152.766,52.605,179.566,125.965c-29.918,41.816-68.214,87.057-113.015,131.839
				c-44.801,44.819-90.061,83.116-131.877,113.034C167.303,458.76,114.698,388.479,114.698,305.994z M305.99,497.286
				c-3.156,0-6.236-0.325-9.354-0.459c35.064-27.432,70.894-58.822,106.11-94.059c35.235-35.235,66.646-71.046,94.058-106.129
				c0.153,3.118,0.479,6.198,0.479,9.354C497.282,411.473,411.469,497.286,305.99,497.286z M428.379,89.777
				c55.303-31.238,98.803-41.683,117.147-23.338c18.402,18.383,8.187,61.902-23.204,117.377
				C500.095,144.62,467.574,112.043,428.379,89.777z"/>
		</g>
	</g>
</g>
<g>
</g>
<g>
</g>
<g>
</g>
<g>
</g>
<g>
</g>
<g>
</g>
<g>
</g>
<g>
</g>
<g>
</g>
<g>
</g>
<g>
</g>
<g>
</g>
<g>
</g>
<g>
</g>
<g>
</g>
</svg>
