<?xml version="1.0" encoding="iso-8859-1"?>
<!-- Generator: Adobe Illustrator 16.0.0, SVG Export Plug-In . SVG Version: 6.00 Build 0)  -->
<!DOCTYPE svg PUBLIC "-//W3C//DTD SVG 1.1//EN" "http://www.w3.org/Graphics/SVG/1.1/DTD/svg11.dtd">
<svg version="1.1" id="Capa_1" xmlns="http://www.w3.org/2000/svg" xmlns:xlink="http://www.w3.org/1999/xlink" x="0px" y="0px"
	 width="612px" height="612px" viewBox="0 0 612 612" style="enable-background:new 0 0 612 612;" xml:space="preserve">
<g>
	<g id="Speaker">
		<g>
			<path d="M306,0h-38.25L133.875,133.875H38.25c-21.114,0-38.25,17.136-38.25,38.25v267.75c0,21.114,17.136,38.25,38.25,38.25
				h95.625L267.75,612H306c21.114,0,38.25-17.136,38.25-38.25V38.25C344.25,17.136,327.133,0,306,0z M286.875,549.997
				L157.647,420.75H57.375v-229.5h100.272L286.875,62.003V549.997z M539.669,130.873c-5.622-5.642-12.985-8.473-20.368-8.473
				c-7.306,0-14.63,2.792-20.234,8.338c-11.226,11.169-11.303,29.338-0.134,40.583C534.85,207.449,554.625,255.28,554.625,306
				s-19.775,98.551-55.673,134.679c-11.169,11.245-11.093,29.414,0.134,40.583c5.604,5.546,12.929,8.338,20.234,8.338
				c7.382,0,14.745-2.83,20.349-8.472C586.296,434.156,612,371.962,612,306S586.296,177.843,539.669,130.873z M449.228,203.375
				c-5.375-4.494-11.915-6.713-18.418-6.713c-8.204,0-16.333,3.5-21.993,10.251c-10.175,12.163-8.588,30.236,3.557,40.411
				c17.48,14.649,27.502,36.031,27.502,58.675c0,22.625-10.021,44.025-27.502,58.656c-12.145,10.175-13.731,28.267-3.557,40.411
				c5.66,6.771,13.808,10.251,21.993,10.251c6.503,0,13.043-2.199,18.418-6.713C479.751,383.055,497.25,345.646,497.25,306
				C497.25,266.354,479.751,228.945,449.228,203.375z"/>
		</g>
	</g>
</g>
<g>
</g>
<g>
</g>
<g>
</g>
<g>
</g>
<g>
</g>
<g>
</g>
<g>
</g>
<g>
</g>
<g>
</g>
<g>
</g>
<g>
</g>
<g>
</g>
<g>
</g>
<g>
</g>
<g>
</g>
</svg>
