<?xml version="1.0" encoding="iso-8859-1"?>
<!-- Generator: Adobe Illustrator 16.0.0, SVG Export Plug-In . SVG Version: 6.00 Build 0)  -->
<!DOCTYPE svg PUBLIC "-//W3C//DTD SVG 1.1//EN" "http://www.w3.org/Graphics/SVG/1.1/DTD/svg11.dtd">
<svg version="1.1" id="Capa_1" xmlns="http://www.w3.org/2000/svg" xmlns:xlink="http://www.w3.org/1999/xlink" x="0px" y="0px"
	 width="612px" height="612px" viewBox="0 0 612 612" style="enable-background:new 0 0 612 612;" xml:space="preserve">
<g>
	<g id="Toggle_x5F_Switches">
		<g>
			<path d="M478.125,344.25h-344.25C59.938,344.25,0,404.188,0,478.125S59.938,612,133.875,612h344.25
				C552.062,612,612,552.062,612,478.125S552.062,344.25,478.125,344.25z M368.348,554.625H133.875c-42.19,0-76.5-34.311-76.5-76.5
				s34.31-76.5,76.5-76.5h234.473c-15.147,21.707-24.098,48.042-24.098,76.5S353.2,532.918,368.348,554.625z M478.125,554.625
				c-42.189,0-76.5-34.311-76.5-76.5s34.311-76.5,76.5-76.5s76.5,34.311,76.5,76.5S520.314,554.625,478.125,554.625z
				 M133.875,267.75h344.25C552.062,267.75,612,207.812,612,133.875S552.062,0,478.125,0h-344.25C59.938,0,0,59.938,0,133.875
				S59.938,267.75,133.875,267.75z M243.652,57.375h234.473c42.189,0,76.5,34.31,76.5,76.5s-34.311,76.5-76.5,76.5H243.652
				c15.147-21.707,24.098-48.042,24.098-76.5S258.799,79.082,243.652,57.375z M133.875,57.375c42.19,0,76.5,34.31,76.5,76.5
				s-34.31,76.5-76.5,76.5s-76.5-34.31-76.5-76.5S91.685,57.375,133.875,57.375z"/>
		</g>
	</g>
</g>
<g>
</g>
<g>
</g>
<g>
</g>
<g>
</g>
<g>
</g>
<g>
</g>
<g>
</g>
<g>
</g>
<g>
</g>
<g>
</g>
<g>
</g>
<g>
</g>
<g>
</g>
<g>
</g>
<g>
</g>
</svg>
