<?xml version="1.0" encoding="iso-8859-1"?>
<!-- Generator: Adobe Illustrator 16.0.0, SVG Export Plug-In . SVG Version: 6.00 Build 0)  -->
<!DOCTYPE svg PUBLIC "-//W3C//DTD SVG 1.1//EN" "http://www.w3.org/Graphics/SVG/1.1/DTD/svg11.dtd">
<svg version="1.1" id="Capa_1" xmlns="http://www.w3.org/2000/svg" xmlns:xlink="http://www.w3.org/1999/xlink" x="0px" y="0px"
	 width="612px" height="612px" viewBox="0 0 612 612" style="enable-background:new 0 0 612 612;" xml:space="preserve">
<g>
	<g id="Stats_x5F_Alt">
		<g>
			<path d="M478.125,497.25h76.5c21.114,0,38.25-17.117,38.25-38.25V38.25c0-21.114-17.136-38.25-38.25-38.25h-76.5
				c-21.114,0-38.25,17.136-38.25,38.25V459C439.875,480.133,457.011,497.25,478.125,497.25z M497.25,57.375h38.25v382.5h-38.25
				V57.375z M57.375,497.25h76.5c21.114,0,38.25-17.117,38.25-38.25V344.25c0-21.114-17.136-38.25-38.25-38.25h-76.5
				c-21.114,0-38.25,17.136-38.25,38.25V459C19.125,480.133,36.261,497.25,57.375,497.25z M76.5,363.375h38.25v76.5H76.5V363.375z
				 M583.312,554.625H28.688C12.833,554.625,0,567.477,0,583.312S12.833,612,28.688,612h554.625
				C599.167,612,612,599.148,612,583.312S599.167,554.625,583.312,554.625z M267.75,497.25h76.5c21.114,0,38.25-17.117,38.25-38.25
				V191.25c0-21.114-17.117-38.25-38.25-38.25h-76.5c-21.133,0-38.25,17.136-38.25,38.25V459
				C229.5,480.133,246.636,497.25,267.75,497.25z M286.875,210.375h38.25v229.5h-38.25V210.375z"/>
		</g>
	</g>
</g>
<g>
</g>
<g>
</g>
<g>
</g>
<g>
</g>
<g>
</g>
<g>
</g>
<g>
</g>
<g>
</g>
<g>
</g>
<g>
</g>
<g>
</g>
<g>
</g>
<g>
</g>
<g>
</g>
<g>
</g>
</svg>
