<?xml version="1.0" encoding="iso-8859-1"?>
<!-- Generator: Adobe Illustrator 16.0.0, SVG Export Plug-In . SVG Version: 6.00 Build 0)  -->
<!DOCTYPE svg PUBLIC "-//W3C//DTD SVG 1.1//EN" "http://www.w3.org/Graphics/SVG/1.1/DTD/svg11.dtd">
<svg version="1.1" id="Capa_1" xmlns="http://www.w3.org/2000/svg" xmlns:xlink="http://www.w3.org/1999/xlink" x="0px" y="0px"
	 width="612px" height="612px" viewBox="0 0 612 612" style="enable-background:new 0 0 612 612;" xml:space="preserve">
<g>
	<g id="CD">
		<path d="M306,0C137.012,0,0,136.992,0,306s137.012,306,306,306s306-136.992,306-306S474.988,0,306,0z M175.778,94.611
			l65.79,141.124c-2.027,1.874-3.978,3.806-5.852,5.852L94.611,175.759C115.018,142.807,142.806,114.999,175.778,94.611z
			 M306,554.625C168.912,554.625,57.375,443.088,57.375,306c0-27.387,4.628-53.665,12.833-78.317l141.41,65.943
			c-0.536,4.093-1.243,8.128-1.243,12.374c0,52.823,42.802,95.625,95.625,95.625c4.227,0,8.262-0.708,12.354-1.243l65.943,141.41
			C359.646,550.016,333.387,554.625,306,554.625z M267.75,306c0-21.095,17.136-38.25,38.25-38.25s38.25,17.174,38.25,38.25
			c0,21.076-17.136,38.25-38.25,38.25S267.75,327.095,267.75,306z M436.222,517.408l-65.809-141.143
			c2.046-1.875,3.997-3.807,5.871-5.872l141.124,65.81C497.001,469.193,469.193,497.001,436.222,517.408z M400.382,318.336
			c0.535-4.074,1.243-8.109,1.243-12.336c0-52.823-42.802-95.625-95.625-95.625c-4.227,0-8.281,0.708-12.354,1.243l-65.943-141.43
			c24.633-8.204,50.911-12.813,78.298-12.813c137.088,0,248.625,111.537,248.625,248.625c0,27.387-4.609,53.646-12.813,78.298
			L400.382,318.336z"/>
	</g>
</g>
<g>
</g>
<g>
</g>
<g>
</g>
<g>
</g>
<g>
</g>
<g>
</g>
<g>
</g>
<g>
</g>
<g>
</g>
<g>
</g>
<g>
</g>
<g>
</g>
<g>
</g>
<g>
</g>
<g>
</g>
</svg>
